<?xml version="1.0" encoding="utf-8"?>
<!-- Generator: Adobe Illustrator 24.3.0, SVG Export Plug-In . SVG Version: 6.00 Build 0)  -->
<svg version="1.1" id="Layer_1" xmlns="http://www.w3.org/2000/svg" xmlns:xlink="http://www.w3.org/1999/xlink" x="0px" y="0px"
	 viewBox="0 0 350 322.9" style="enable-background:new 0 0 350 322.9;" xml:space="preserve">
<style type="text/css">
	.st0{fill:#666260;}
	.st1{fill:#231F20;}
	.st2{fill:#563C3B;}
	.st3{fill:#DDC9C7;}
	.st4{fill:#704A47;}
	.st5{fill:#997164;}
	.st6{fill:#B2A5A4;}
	.st7{fill:#89645B;}
	.st8{fill:#775C58;}
	.st9{fill:#BCAEAD;}
	.st10{fill:#7F5E55;}
	.st11{fill:none;}
	.st12{fill:#99807E;}
	.st13{fill:#543938;}
	.st14{fill:#5B3E3C;}
	.st15{fill:#846F6E;}
	.st16{fill:#563938;}
	.st17{fill:#72544C;}
	.st18{fill:#AF9385;stroke:#231F20;stroke-miterlimit:10;}
	.st19{fill:#89756D;}
	.st20{fill:#B7A8A7;}
	.st21{fill:none;stroke:#231F20;stroke-miterlimit:10;}
	.st22{fill:#F7E3E2;}
</style>
<g id="a">
	<g>
		<path class="st0" d="M173.6,0.1c-84,0-152,68.1-152,152s68.1,152,152,152s152-68.1,152-152S257.6,0.1,173.6,0.1z M173.6,248.2
			c-53.6,0-97.1-43-97.1-96.1S120,56,173.6,56s97.1,43,97.1,96.1S227.2,248.2,173.6,248.2z"/>
		<g>
			<path class="st1" d="M173.6,0.2C113.4-0.5,55.7,38.2,33.4,94c-41,99.5,32.5,209.6,140.2,209.5c107.5-0.1,180.7-110,139.9-209.3
				C291.3,38.4,233.7-0.3,173.6,0.2C173.6,0.2,173.6,0.2,173.6,0.2z M173.6,0c60.4-0.8,118.3,37.8,141,93.7
				c42,100-32.7,211.5-141,211.1c-108.3,0-182.4-110.9-140.7-211C55.5,38,113.3-0.7,173.6,0L173.6,0L173.6,0z"/>
			<path class="st1" d="M173.6,248.3c-38.3,0.5-75.3-23.7-89.9-59.1c-27.1-63.9,21.1-133.9,89.9-133.8c69-0.3,117.5,69.9,90.2,134
				C249.1,224.8,211.9,248.8,173.6,248.3L173.6,248.3z M173.6,248.2c38.1,0.3,74.8-24,89.1-59.3c26.1-63.2-21-132.1-89.1-132.2
				C105.3,56.4,57.8,125.6,84.2,189C98.5,224.4,135.4,248.5,173.6,248.2L173.6,248.2z"/>
		</g>
	</g>
</g>
<g id="b">
	<g>
		<path class="st2" d="M293.8,168.6c-18.8,1.5-38.4,15.9-49.2,16.6l0,0c-0.9,0.2-1.9,0.2-2.8,0.1c-5.5-0.7-9.3-5.9-8.5-11.7
			c0.3-2.4,1.3-4.5,2.8-6l-0.2-0.4c6.9-7.1,37.5-10.4,50.1-21.3c47.1-40.8,61.2-13.1,61.2-13.1C348.7,135.8,360.9,163.2,293.8,168.6
			L293.8,168.6z"/>
		<path class="st1" d="M293.9,168.8c-8.7,0.9-16.8,4.2-24.6,7.9c-5.7,2.6-15,7.8-21,9.5c-1.4,0.5-3,0.6-4.5,0.9l-0.5-1.1l0,0l1.8,1
			c-5,1.1-10.4-1.9-12.5-6.5c-2.2-4.6-1.3-10.4,2.2-14.1l-0.3,2.3l-0.2-0.4l-0.7-1.3c3.6-3.9,8.3-5.5,12.9-7.1
			c8-2.6,16-4.6,23.9-7.5c4.8-1.8,9.5-3.7,13.5-6.7c5.7-4.7,11.4-9.3,17.7-13.2c10.7-6.5,23.9-12.9,36.5-8.4
			c14.5,5.4,15.9,22.8,3.9,31.7C329,165.3,309.5,167.2,293.9,168.8L293.9,168.8L293.9,168.8z M293.8,168.4c12.4-1,25-2.9,36.6-7.6
			c7.3-3.1,15.1-8.1,17.1-16.1c3.1-13.8-9.7-21.8-22.2-19.5c-14.8,2.7-27.1,12.4-38.3,21.9c-4.5,3.9-10.1,6.4-15.6,8.6
			c-7.8,3.1-16,5.2-23.9,7.9c-3.5,1.3-7.7,2.6-10.3,5l0.4-2.3l0.2,0.4l0.6,1.3c-7,6-2.4,17.5,7.1,15.5l0.5,1.1l0,0l-1.6-1
			c8.2-0.8,16.3-5.3,24.1-8.3C276.7,172.2,285.1,169.1,293.8,168.4L293.8,168.4L293.8,168.4z"/>
	</g>
	<path d="M344.4,130.4c-4.6-2.3-22.5-7-52,17.4c-9.7,8-35.5,14.7-40.6,19.7l0.2,0.2c-1.1,1.1-1.8,2.4-1.8,3.8c0,0.2,0,0.5,0.1,0.7
		c-2.2-0.8-3.6-2.4-3.6-4.4c0-1.4,0.7-2.6,1.8-3.8l-0.2-0.2c5.1-4.2,33.6-11.1,41.4-19.9c28.6-27.4,50.3-16.9,50.3-16.9
		C340.2,127.3,343.8,128.9,344.4,130.4L344.4,130.4z"/>
	<g>
		<path class="st3" d="M265.5,253.3c10.3,10.9-30,35.5-83.5,36.1c-52.1,0.6-94-7.5-101.7-20.5c-5-8.6,41-29.1,93.1-31.4
			C225.6,235.2,260.3,247.7,265.5,253.3L265.5,253.3z"/>
		<path class="st1" d="M265.6,253.2c6.1,7.2-6.5,15.6-12,18.9c-37.2,21-81.8,19.5-123,15.3c-12.5-1.6-25.1-3.7-36.9-8.3
			c-5.2-2.2-10.9-4.9-14-9.9c-1.6-3.1,1.4-6,3.5-7.9c10.2-7.8,22.5-11.8,34.5-15.6c32.3-9.5,66.7-11.8,100-7.2
			c12.5,1.8,24.9,4.4,36.7,8.7C258.4,248.8,262.5,250.3,265.6,253.2L265.6,253.2L265.6,253.2z M265.5,253.3
			c-10.4-8.1-34.5-12.1-47.8-13.6c-33.2-3.5-67.2-1.4-99.3,7.9c-11.8,3.6-24.1,7.5-34,15c-1.6,1.4-3.9,3.3-3.4,5.5
			c2.8,4.8,8.3,7.3,13.3,9.5c11.6,4.6,24.1,6.8,36.5,8.4c41,4.3,85.6,6.4,122.8-14.2C258.9,268.7,271.4,260.3,265.5,253.3
			L265.5,253.3L265.5,253.3z"/>
	</g>
	<g>
		<circle class="st4" cx="246.4" cy="173.1" r="21.7"/>
		<path class="st1" d="M268.1,173.1c0,19.5-23.5,29.5-37.6,15.9c-8.9-8.4-8.9-23.5,0-31.9C244.6,143.6,268,153.6,268.1,173.1
			L268.1,173.1z M268.1,173.1c-0.1-19-23.2-28.3-36.4-14.7c-7.9,7.8-7.9,21.6,0,29.4C244.9,201.4,268,192.1,268.1,173.1L268.1,173.1
			z"/>
	</g>
	<path class="st1" d="M24.9,174.6c5.2,10.5,18.8,12.8,29.3,13.8c34,1.7,67.4-9.8,97.3-25c27.1-14.7,89.9-47.2,92.9-80
		c0.5-5.3-0.3-11.1-4.9-14.4c-6.7-5-15.5-5.8-23.7-6.1c-33.9,0-66.9,10.8-97.7,24.2c-30.5,14.1-61.1,31.2-83.3,56.9
		C28.4,152.2,20.5,163.6,24.9,174.6L24.9,174.6L24.9,174.6z M24.9,174.6c-4.5-10.9,3.4-22.4,9.9-30.8c28.6-32.8,73.9-56,114.6-70.3
		c21.5-7.2,43.8-12.8,66.6-12.5c10.5,0.4,26.2,1.9,29.9,13.8c6.6,31.3-41.2,59.6-64.1,73.3c-38.7,22.5-81.9,42.7-127.7,40.4
		C43.6,187.5,30.1,185.1,24.9,174.6L24.9,174.6z"/>
	<g>
		<path class="st5" d="M1.4,140c0.4,0.4,15.3,24.1,22,34.8c2.4,3.8,5.8,6.8,9.9,8.5c55.6,23.6,172.3-38.9,208.7-86.9
			c17.2-22.7-12-88.4-5.1-74.6C256.3,60.9,74.8,190,1.4,140L1.4,140z"/>
		<path class="st1" d="M1.4,140c7.6,11.6,14.9,23.3,22.4,35c1.9,2.9,4.4,5.3,7.4,7c9.2,4.6,19.8,6,30.1,6
			c55.2-0.6,126.3-39.1,166-76.7c4.9-4.8,9.6-9.9,13.8-15.3c2-2.6,3.3-5.8,4.1-9c2.3-10,1.1-20.5-0.6-30.5
			c-1.2-6.8-2.9-13.5-4.8-20.1c-1.4-5.1-3.3-10.5-4.8-15.5l-0.1-0.3l0-0.2c0-0.1,0-0.1,0-0.4c0.6-1.7,2.5-0.2,1.8-0.5
			c0.1,0.1,0.1,0.1,0.1,0.2l0.2,0.3l0.3,0.6c4.1,7.4,1,16.2-2.6,23.1C202.8,99.7,62,182,1.4,140L1.4,140L1.4,140z M1.4,140
			C61.3,181.1,201.7,98.2,233,42.8c3.5-6.6,6.5-15,2.3-21.9l-0.1-0.2c0,0,0-0.1,0-0.1c-0.8-0.4,1,0.9,1.6-0.5
			c1.5,4.5,3.5,10.8,5,15.8c4.5,16.4,9.1,34.6,5.4,51.6c-0.9,3.4-2.3,6.8-4.5,9.7c-4.2,5.6-9,10.7-14,15.5
			c-39.8,37.7-111.8,76.1-167.3,76.3c-10.4-0.2-21.1-1.7-30.4-6.5c-3-1.8-5.6-4.3-7.5-7.2C16.1,163.5,8.8,151.7,1.4,140L1.4,140
			L1.4,140z"/>
	</g>
	<path class="st1" d="M232.7,153.4c-1.1,5.3-7.8,11.6-12.9,13.3c2.6-1.7,5-3.8,7.2-6C229.1,158.5,231.4,156.3,232.7,153.4
		L232.7,153.4L232.7,153.4z"/>
	<path class="st6" d="M100.8,253.7C69.6,266,81.7,271.4,91,276.1c11.2,5.6,26.8,7.9,26.8,7.9c6.4-3.8,10.3-5.1,10.1-5.6
		c-0.2-0.4-4.5-0.6-8-1.4c-7.5-1.6-26-6.5-20.5-16C100,260,99.7,256,100.8,253.7L100.8,253.7z"/>
	<path class="st7" d="M6.7,147.3l19,29.6c16.1,18.8,64,11,100-3c0,0-18.8-35.1-18.2-34.4C62.4,157.7,13.2,161.8,6.7,147.3L6.7,147.3
		z"/>
	<path class="st8" d="M238.5,32.4c22.1,67.6,1.6,71.6-45.4,105.9c-4.1-16.4-4.6-30.9-8.2-40.1C224.7,72.6,240.2,39.8,238.5,32.4
		L238.5,32.4z"/>
	<path class="st9" d="M246.1,245c1.7,9.6,0.4,13.8-7.6,19.4l17.4,5.7C275.9,254.8,266.2,250.4,246.1,245L246.1,245z"/>
	<path class="st10" d="M265.8,263.2c-2,2.6-4.8,5.6-8.2,8.1l1.7,26.9C267.8,293.8,266.5,286.9,265.8,263.2L265.8,263.2z"/>
	<path class="st1" d="M238.7,152.5c18.4-6.3,35.5,12.5,27.4,30.3c-5,11.2-19.3,16.1-30.1,10.4C218.5,184.3,220.3,159,238.7,152.5
		L238.7,152.5L238.7,152.5z M238.7,152.5c-17.9,6.3-19.2,31.2-2,39.2c10,4.9,23,0.4,27.8-9.6C273.1,165.2,256.7,146.4,238.7,152.5
		L238.7,152.5z"/>
	<path class="st11" d="M233.9,153.7c14-0.4,25.9,16.4,25.3,29.9c-0.6,13.5-13.1,24.2-27.1,22.4"/>
	<path class="st1" d="M195.3,171.2c9.8-25.6,45.4-26.9,57.1-2.1c7.4,15.4,0.1,34.8-15.7,41.5C211.5,221.4,185.7,196.9,195.3,171.2
		L195.3,171.2L195.3,171.2z M195.3,171.2c-7.7,20,8.1,41.7,29.5,40.6c26.2-1.4,38.2-33.2,19.5-51.5
		C228.9,145.3,202.8,151.1,195.3,171.2L195.3,171.2L195.3,171.2z"/>
	<g>
		<circle class="st12" cx="223.6" cy="181.5" r="30.5"/>
		<path class="st1" d="M254.1,181.5c-0.1,27.4-32.9,41.2-52.7,22.2c-12.4-11.8-12.4-32.5,0-44.4C221.1,140.2,254,154.1,254.1,181.5
			L254.1,181.5L254.1,181.5z M254.1,181.5c0.1-21.5-22.3-36.1-41.9-27.5c-24,10.6-24,44.5,0,55.1
			C231.8,217.6,254.2,202.9,254.1,181.5L254.1,181.5L254.1,181.5z"/>
	</g>
	<g>
		<path class="st4" d="M49.7,187.9c49.5,27.5,56.7,31,49.9,73.6c-10.7,29.4,175.1,22.2,143.1-19.9C208.7,171.4,242,97.3,242,97.3
			C205.3,143.2,115.7,195.7,49.7,187.9L49.7,187.9z"/>
		<path class="st1" d="M49.7,187.9c7.3,4,14.6,8,21.8,12.1c10.5,6.4,22.4,12.8,27.8,24.4c5,11.8,2.4,25,0.8,37.2
			C96,274,127.2,277,135.3,277.8c27,2.3,84.2-0.1,105.3-17.5c6.1-5.3,6.2-11.9,1.3-18.1c-5.5-11.2-9.5-23.2-12-35.4
			c-6.3-30.5-3.6-62.4,5.1-92.1c1.8-6,3.8-11.8,6.2-17.6l1.5,0.9c-5.8,7.2-12.2,13.8-19,20C180.4,157.1,109.4,194.5,49.7,187.9
			L49.7,187.9L49.7,187.9z M49.7,187.9c64.6,6.8,151.4-42,191.7-91.1l4-5l-2.5,5.9c-18.6,46.5-21.2,104.2,3.4,148.2
			c7.6,20.5-31.7,28.2-45.5,30.6c-24.4,4.2-76.1,7-97.4-5.4c-3.4-2-5.9-6-4.3-9.7c0.7-4.1,1.3-8.2,1.7-12.3
			c1.5-12.8,0.8-25.1-9.2-34.4c-6-5.8-13.1-10.1-20.2-14.4C64.2,196,56.9,192,49.7,187.9L49.7,187.9L49.7,187.9z"/>
	</g>
	<path class="st13" d="M50.5,188.1c15.6,8.4,17.4,9.9,22.1,12.7c5,2.9,12.8,12,23,10.5c14.4-2.1,34.1-5.9,45.5-10.7l-12.6-25
		C102.1,186,68.6,190.7,50.5,188.1L50.5,188.1z"/>
	<path class="st14" d="M237.9,233.2c1.3,1.3-6.7,6.9-11.8,9c4.3,7.7,8.8,14.2,7.8,22.5C248.4,257.2,247.7,248.2,237.9,233.2z"/>
	<path class="st14" d="M102,250.5c-0.9,2.2-0.2,4.7-0.9,6.3c-6.7,14.8,9.8,16.4,28.4,20.2c-2.1-6.2-1.4-13.5,0.2-20.8
		C111.5,253.8,106.7,252.6,102,250.5L102,250.5z"/>
	<path class="st15" d="M231.1,190.9c-1.9-2.3,2.9,19.3,2.9,19.3c10.2-2.8,18.2-13.2,19.7-24.5C252.4,191,235,195.5,231.1,190.9
		L231.1,190.9z"/>
	<path class="st16" d="M255.1,184c-0.3,3.1-1.2,5.7-1.7,8.2c4.3-0.8,10.3-6.2,12-12.1C263,182.4,258,184.1,255.1,184z"/>
	<path class="st17" d="M117.6,285.1c-1.7,13.5,0.6,24.1,6.9,31.9c-9-1.6-18.6-4.6-28.7-8.7c-16.5-8.9-16.3-16.3-15.4-39.4
		C86.5,278.5,102.2,281.7,117.6,285.1z"/>
</g>
<g id="c">
	<path class="st18" d="M93.4,216.9c-5.5-1.1-12.8-12.7-9.6-9.3c1.9,1.9,5.9,3.4,10.8,3.1c61.5-3.2,141.5-57.3,137.2-68.2
		c-3.2-8.2,6.5,1.8,1,12.2c-3.9,32.1-3.2,49.6,6.3,70.6c4.1,15.1-34.1,26.9-81.9,30.6c-7.9,0.6-65.5-1-57.6-11.9
		C102.5,232,98.9,229.4,93.4,216.9L93.4,216.9z"/>
	<path class="st13" d="M237.8,103.8C224,118,208.1,131,190.6,143.2c0.6,7.8,0.1,16.7,4.7,30.7c5.3-1.3,33.4-20.8,32.8-25
		C229.6,135.7,232.6,121.5,237.8,103.8L237.8,103.8z"/>
	<path class="st19" d="M232.1,156c-2.2,3.3-6.1,7.6-9.9,10.1c-5.7,4.1-21.1,16.2-24.5,22.9c-5,9.9,0.6,43.3,13.9,48.9
		c5.4,2.3,21.5-6.3,23.2-9.2c2.5-2.8,5.2-1.2-1.5-16.2C229.7,200.3,228.7,178.6,232.1,156L232.1,156z"/>
	<path class="st19" d="M144.7,208.3c-11,5.3-30,11-52,9.6c8,11.7,9.2,20.8,6.2,27.1c10.9,4.6,24.9,7.7,38.3,7.1
		C154.2,251.8,156.1,234.4,144.7,208.3L144.7,208.3z"/>
</g>
<g id="d">
	<g>
		
			<ellipse transform="matrix(0.8854 -0.4648 0.4648 0.8854 -24.0179 64.7575)" class="st3" cx="119.3" cy="81.1" rx="131.8" ry="47.9"/>
		<path class="st1" d="M2.6,142.4c6.4,11.3,21.1,13,33,13.1c24.9-0.3,49.1-7.7,72-16.8c43.6-18.2,91.5-46.2,119.8-84.8
			c6.4-9.6,13.2-22.3,7.7-33.7C228.8,9.4,214.6,7.8,203,7.6C155.3,8.9,105,32.4,65.2,58c-20.5,13.7-40.3,29.5-54.7,49.8
			C3.9,117.6-3,130.6,2.6,142.4L2.6,142.4L2.6,142.4z M2.6,142.4c-5.7-11.7,1.2-24.8,7.8-34.7c21.9-30.3,54-51.6,86.4-69.4
			c33-17,68.7-31.7,106.2-32.6c12.1,0.1,27.3,2,33.8,13.7c5.9,12.1-1.2,25.6-8,35.6c-22.1,30.4-54.5,51.4-87.1,68.9
			c-33,16.6-68.8,30.9-106.2,31.7C23.8,155.4,9.1,153.7,2.6,142.4L2.6,142.4L2.6,142.4z"/>
	</g>
	<path class="st20" d="M140.6,123.2c-12.6,6.6-25,12.2-37.1,16.8c8.1-3.5,16.4-7.4,24.7-11.8C192.6,94.4,234.9,48,222.6,24.6
		c-9.9-18.8-52-17-101.7,2c54.9-23.6,103.4-27.4,114-7C247.3,43,205,89.4,140.6,123.2L140.6,123.2z"/>
</g>
<g id="e">
	<path class="st1" d="M2.1,142.1c6.4,11.3,21.1,13,33,13.1c24.9-0.3,49.1-7.7,72.1-16.8c43.6-18.2,91.5-46.2,119.8-84.8
		c6.4-9.6,13.2-22.3,7.7-33.7C228.3,9.1,214,7.5,202.5,7.3c-47.8,1.3-98.1,24.9-137.8,50.4C44.2,71.4,24.4,87.2,10,107.5
		C3.4,117.3-3.5,130.4,2.1,142.1L2.1,142.1L2.1,142.1z M2.1,142.1c-5.7-11.7,1.2-24.8,7.8-34.7c21.9-30.3,54-51.6,86.4-69.4
		c33-17,68.7-31.7,106.2-32.6c12.1,0.1,27.3,2,33.8,13.7c5.9,12.1-1.2,25.6-8,35.6c-22.1,30.4-54.5,51.4-87.1,68.9
		c-33,16.6-68.8,30.9-106.2,31.7C23.2,155.2,8.5,153.4,2.1,142.1L2.1,142.1L2.1,142.1z"/>
	<g>
		<path d="M106.3,217.6c-5.2,0.9-7.7,1.4-11,0"/>
		<path class="st1" d="M106.3,217.6c-3.4,1.3-7.8,2.3-11,0C98.9,218.6,102.5,217.6,106.3,217.6L106.3,217.6z"/>
	</g>
	<path class="st21" d="M92.5,216.8c-5.5-1.1-12.8-12.7-9.6-9.3c1.9,1.9,5.9,3.4,10.8,3.1c61.5-3.2,141.5-57.3,137.2-68.2
		c-3.2-8.2,6.5,1.8,1,12.2c-3.9,32.1-3.2,49.6,6.3,70.6c4.1,15.1-34.1,26.9-81.9,30.6c-7.9,0.6-65.5-1-57.6-11.9
		C101.6,231.9,98,229.3,92.5,216.8L92.5,216.8z"/>
	<path class="st1" d="M1.6,140.8c7.5,11.6,14.9,23.4,22.3,35c1.9,2.9,4.4,5.3,7.4,7c9.3,4.7,19.9,6,30.2,6.1
		c55.6-0.6,126.4-38.8,166.3-76.5c5-4.8,9.7-9.9,13.9-15.4c2.1-2.7,3.4-5.9,4.2-9.2c2.4-10.1,1.1-20.6-0.6-30.7
		c-1.2-6.8-2.9-13.5-4.8-20.1c-1.3-4.8-3.1-10.1-4.6-14.8l-0.2-0.6l-0.1-0.3c0-0.1-0.1-0.2-0.1-0.5c0.3-0.8,1.2-0.1,0.9-0.2
		c0,0.1,0.1,0.1,0.1,0.2c4.7,7.4,1.6,16.5-2.1,23.5C202.8,100.1,62,182.7,1.6,140.8L1.6,140.8L1.6,140.8z M1.6,140.8
		c60.2,41.3,200.5-41.2,232-96.9c3.6-6.8,6.6-15.6,2.1-22.6c0,0,0-0.1-0.1-0.1c-0.4-0.2,0.5,0.4,0.7-0.3c1.5,5.1,3.6,10.7,5,15.9
		c4.5,16.3,9.1,34.5,5.4,51.4c-0.9,3.4-2.2,6.7-4.4,9.5c-4.2,5.5-9,10.6-14,15.4c-40,37.7-111.2,76-166.9,76.4
		c-10.3-0.2-21-1.6-30.3-6.4c-3-1.8-5.6-4.2-7.5-7.2C16.3,164.3,9,152.5,1.6,140.8L1.6,140.8L1.6,140.8z"/>
	<path class="st22" d="M199.4,82.3c-15.8,14.8-44,34.1-70.7,46.9C69.8,157.6,13.6,163.6,3.1,142.5c-7-14.1,3.4-38.8,31.7-60.7
		c-19.1,17.9-23.5,37.4-17.8,48.9c10.5,21.1,66.7,15.2,125.6-13.2C162.3,108,185.3,93.2,199.4,82.3L199.4,82.3z"/>
	<g>
		<path class="st5" d="M80.3,269.3v17.4c0,10.3,5.7,16.5,14.4,20.8c22.7,11.2,59.9,14.5,82.4,14.5s59.3-3.8,83.6-23.4
			c4.5-3.6,6.7-6.3,6.6-12.4l-0.5-26.3C247,298,103.5,295.7,80.3,269.3L80.3,269.3z"/>
		<path class="st1" d="M80.3,269.3l0.1,16.1c0,2.7,0.2,5.4,1,7.9c2.3,8,9.8,12.6,17.1,15.5c14.9,6.1,30.9,8.9,46.9,10.7
			c31.7,3.2,65,2.8,94.8-9.8c7.3-3.2,14.3-7.2,20.4-12.3c2-1.7,3.9-3.5,4.8-5.7c1-2.3,0.9-5.1,0.8-7.5l-0.1-8.1l-0.2-16.1l1.8,0.4
			c-13.7,24.3-66.6,28.5-92.1,29.1C151.2,290,97.4,287.2,80.3,269.3L80.3,269.3L80.3,269.3z M80.3,269.3
			c10.2,10.5,31.7,14.1,45.9,16.2c32.6,4.2,66.1,3.8,98.2-3.2c11.9-2.8,23.9-6.5,33.7-13.9c3.2-2.5,6-5.4,7.8-9l1.7-3.4
			c0,2.3,0.4,17.3,0.4,19.9l0.1,8.1c0.1,2.6,0.2,5.6-1,8.3c-1.1,2.7-3.2,4.7-5.4,6.5c-6.3,5.2-13.5,9.3-20.9,12.5
			c-30.1,12.6-63.7,13-95.7,9.4c-16-2-32.1-4.9-47-11.3c-7.3-3-15-8-17.2-16.2c-0.8-2.6-0.9-5.3-0.9-8L80.3,269.3L80.3,269.3
			L80.3,269.3z"/>
	</g>
</g>
</svg>
