<?xml version="1.0" encoding="UTF-8"?><svg xmlns="http://www.w3.org/2000/svg" viewBox="0 0 350.23 323.34"><defs><style>.g,.h,.i{stroke:#231f20;stroke-miterlimit:10;}.g,.j{fill:none;}.k{fill:#5b3e3c;}.l{fill:#7f5e55;}.m{fill:#563938;}.n{fill:#f7e3e2;}.h{fill:#af9385;}.i{fill:#563c3b;stroke-width:2px;}.o{fill:#99807e;}.p{fill:#997164;}.q{fill:#b7a8a7;}.r{fill:#b2a5a4;}.s{fill:#846f6e;}.t{fill:#704a47;}.u{fill:#775c58;}.v{fill:#72544c;}.w{fill:#ddc9c7;}.x{fill:#bcaead;}.y{fill:#8e1921;}.a`{fill:#231f20;}.aa{fill:#845e5e;}.ab{fill:#89645b;}.ac{fill:#89756d;}.ad{fill:#543938;}</style></defs><g id="a"><g><path class="y" d="M173.61,.09C89.65,.09,21.58,68.16,21.58,152.12s68.06,152.03,152.03,152.03,152.03-68.06,152.03-152.03S257.57,.09,173.61,.09Zm0,248.14c-53.64,0-97.13-43.03-97.13-96.11S119.97,56.01,173.61,56.01s97.13,43.03,97.13,96.11-43.49,96.11-97.13,96.11Z"/><g><path class="a`" d="M173.61,.17C113.46-.46,55.72,38.19,33.4,94.05c-41.03,99.5,32.48,209.64,140.21,209.46,107.54-.08,180.69-109.98,139.9-209.33C291.26,38.39,233.7-.33,173.61,.17h0Zm0-.16c60.35-.85,118.34,37.78,141.04,93.69,42.03,99.99-32.67,211.5-141.04,211.09-108.32,.01-182.45-110.95-140.73-210.96C55.5,37.98,113.32-.71,173.61,.01h0Z"/><path class="a`" d="M173.61,248.31c-38.28,.46-75.28-23.71-89.94-59.13-27.06-63.89,21.1-133.87,89.94-133.82,69.03-.31,117.55,69.92,90.25,133.95-14.73,35.5-51.93,59.5-90.25,59h0Zm0-.16c38.12,.33,74.82-23.96,89.11-59.32,26.13-63.23-21.05-132.14-89.11-132.18-68.25-.22-115.79,68.94-89.42,132.31,14.36,35.43,51.26,59.57,89.42,59.19h0Z"/></g></g></g><g id="b"/><g id="c"><path class="i" d="M294.09,168.4c-18.77,1.52-38.42,15.92-49.19,16.62l-.02-.05c-.91,.16-1.85,.19-2.81,.07-5.45-.69-9.28-5.92-8.55-11.66,.3-2.37,1.33-4.46,2.82-6.05l-.18-.36c6.86-7.13,37.45-10.4,50.09-21.33,47.15-40.77,61.15-13.12,61.15-13.12,1.54,3.08,13.74,30.5-53.31,35.89Z"/><path class="aa" d="M344.88,130.51c-4.61-2.32-22.95-7.19-52.47,17.2-9.68,8-35.52,14.72-40.65,19.71l.19,.16c-1.12,1.12-1.79,2.42-1.8,3.77,0,.23,.02,.46,.06,.68-2.21-.83-3.65-2.44-3.63-4.44,.01-1.35,.69-2.65,1.8-3.77l-.19-.16c5.1-4.16,33.34-10.98,40.66-19.72,35.61-29.89,51.13-17.38,51.37-17.18,.38,.34,4.59,3.36,4.66,3.75Z"/><g><path class="w" d="M265.55,253.26c10.33,10.94-29.96,35.46-83.46,36.08-52.12,.6-94.01-7.52-101.66-20.49-5.04-8.56,41.01-29.08,93.09-31.38,52.08-2.3,86.84,10.28,92.03,15.79Z"/><path class="a`" d="M265.62,253.19c6.1,7.2-6.54,15.63-11.96,18.91-37.16,20.99-81.83,19.53-123.01,15.29-12.5-1.6-25.1-3.71-36.9-8.32-5.19-2.17-10.88-4.86-14.03-9.85-1.63-3.11,1.41-6.05,3.55-7.88,10.16-7.77,22.51-11.8,34.53-15.61,32.32-9.52,66.68-11.76,100.02-7.19,12.48,1.75,24.89,4.37,36.72,8.73,3.87,1.58,7.94,3.05,11.08,5.91h0Zm-.15,.14c-10.36-8.15-34.54-12.09-47.8-13.64-33.22-3.51-67.2-1.44-99.33,7.91-11.81,3.63-24.07,7.55-34.02,15.02-1.58,1.4-3.93,3.3-3.35,5.55,2.84,4.84,8.29,7.32,13.33,9.51,11.64,4.62,24.11,6.77,36.5,8.43,40.96,4.33,85.55,6.41,122.75-14.19,5.38-3.24,17.85-11.6,11.92-18.6h0Z"/></g><g><circle class="t" cx="246.4" cy="173.12" r="21.67"/><path class="a`" d="M268.07,173.12c-.03,19.47-23.48,29.49-37.6,15.93-8.91-8.39-8.92-23.47,0-31.86,14.16-13.56,37.53-3.57,37.6,15.93h0Zm0,0c-.08-19.02-23.21-28.3-36.38-14.71-7.89,7.85-7.89,21.57,0,29.43,13.17,13.59,36.31,4.3,36.38-14.72h0Z"/></g><path class="a`" d="M24.95,174.58c5.18,10.48,18.77,12.83,29.33,13.78,33.99,1.69,67.38-9.83,97.35-24.99,27.07-14.69,89.86-47.19,92.94-80.02,.52-5.27-.26-11.11-4.87-14.42-6.7-4.96-15.5-5.77-23.67-6.13-33.85-.02-66.92,10.83-97.73,24.2-30.54,14.09-61.05,31.19-83.32,56.89-6.62,8.3-14.48,19.73-10.04,30.68h0Zm0,0c-4.51-10.94,3.35-22.45,9.93-30.77,28.56-32.81,73.95-55.96,114.56-70.32,21.48-7.16,43.84-12.76,66.65-12.53,10.52,.4,26.22,1.95,29.92,13.8,6.63,31.32-41.18,59.63-64.08,73.3-38.69,22.48-81.9,42.71-127.66,40.44-10.64-1.01-24.12-3.38-29.32-13.92h0Z"/><g><path class="p" d="M1.39,139.99c.36,.36,15.3,24.1,22.01,34.79,2.37,3.77,5.78,6.79,9.88,8.53,55.56,23.6,172.28-38.89,208.65-86.89,17.2-22.7-12-88.36-5.12-74.6C256.33,60.87,74.77,189.97,1.39,139.99Z"/><path class="a`" d="M1.39,139.99c7.58,11.58,14.95,23.31,22.41,34.96,1.88,2.86,4.42,5.29,7.38,6.98,9.25,4.62,19.84,5.97,30.09,6.03,55.23-.65,126.33-39.13,165.98-76.66,4.94-4.79,9.64-9.85,13.79-15.3,2.02-2.63,3.32-5.76,4.13-9.03,2.34-10,1.13-20.46-.61-30.52-1.22-6.77-2.87-13.47-4.77-20.1-1.39-5.06-3.27-10.46-4.84-15.49l-.09-.35-.05-.2c-.01-.1-.04-.11-.04-.42,.58-1.67,2.53-.18,1.81-.48,.08,.1,.1,.14,.14,.21l.19,.32,.32,.6c4.12,7.43,1.01,16.22-2.64,23.11C202.86,99.74,62.01,182.06,1.39,139.99h0Zm0,0c59.94,41.08,200.29-41.77,231.57-97.18,3.49-6.61,6.48-15.03,2.29-21.91l-.14-.24s-.05-.07-.04-.06c-.75-.36,1.03,.95,1.61-.54,1.5,4.51,3.53,10.76,4.98,15.77,4.5,16.43,9.1,34.61,5.37,51.62-.86,3.44-2.26,6.84-4.48,9.71-4.25,5.55-9.01,10.66-14.02,15.49-39.76,37.67-111.78,76.14-167.27,76.28-10.36-.18-21.07-1.68-30.38-6.47-3.03-1.77-5.6-4.3-7.48-7.24-7.33-11.75-14.57-23.55-22.01-35.22h0Z"/></g><g><path class="p" d="M80.27,269.31v17.44c0,10.33,5.66,16.51,14.37,20.8,22.73,11.2,59.85,14.49,82.39,14.49s59.34-3.79,83.62-23.4c4.49-3.62,6.67-6.31,6.56-12.35l-.45-26.32c-19.72,38.06-163.26,35.7-186.5,9.33Z"/><path class="a`" d="M80.27,269.31c.02,5.46,.15,10.85,.23,16.14-.44,12.32,7.35,19.05,18.08,23.22,14.89,6.03,30.89,8.78,46.81,10.53,31.62,3.09,64.89,2.66,94.54-9.88,7.27-3.18,14.18-7.18,20.3-12.22,2.01-1.67,3.82-3.42,4.67-5.56,.98-2.21,.83-4.94,.8-7.34l-.12-8.06-.24-16.12,2.7,.63c-13.79,24.54-66.86,28.73-92.55,29.2-24.23,.48-78.34-2.54-95.22-20.53h0Zm0,0c10.26,10.35,31.79,13.91,45.91,16.03,32.56,4.12,65.99,3.57,98.12-3.37,14.24-3.49,33.68-9.12,41.2-22.64l2.59-5.04,.11,5.67c.11,5.39,.36,18.98,.46,24.18,.49,6.6-1.04,11.01-6.55,15.23-37.94,30.31-103.9,27.33-148.73,15.85-11.78-3.64-28.77-8.41-32.5-21.71-.76-2.64-.9-5.37-.84-8.09,.08-5.46,.22-10.81,.23-16.1h0Z"/></g><path class="a`" d="M232.68,153.44c-1.07,5.32-7.82,11.56-12.86,13.32,2.62-1.74,4.98-3.75,7.17-5.99,2.08-2.26,4.45-4.48,5.7-7.33h0Z"/><path class="r" d="M100.8,253.72c-31.18,12.27-19.72,17.41-10.59,22.47,9.94,5.5,28.28,7.95,28.28,7.95,6.43-3.78,9.67-5.27,9.48-5.77-.16-.41-4.54-.63-8.03-1.38-7.46-1.6-25.96-6.48-20.52-16.05,.55-.96,.27-4.9,1.38-7.22Z"/><path class="ab" d="M6.67,147.32l19.03,29.58c16.05,18.8,63.97,11.01,99.97-2.98,0,0-18.8-35.08-18.19-34.39-45.07,18.12-94.26,22.28-100.82,7.8Z"/><path class="u" d="M238.49,32.44c22.06,67.62,1.64,71.64-45.4,105.86-4.15-16.37-4.6-30.86-8.25-40.05,39.86-25.68,55.34-58.47,53.66-65.81Z"/><path class="x" d="M246.13,245.01c2.33,8.48,1.16,12.79-7.64,19.41l16.85,5.46c22.01-16.05,12.5-17.89-9.21-24.88Z"/><path class="a`" d="M238.74,152.53c14.54-5.2,30.31,6.29,29.76,21.83-.73,20.58-26.38,29.46-39.67,13.73-10.04-11.87-4.74-30.66,9.91-35.56h0Zm0,0c-17.86,6.35-18.93,30.89-1.82,38.8,9.82,4.68,22.4,.34,27.24-9.42,8.57-16.8-7.45-35.43-25.42-29.39h0Z"/><path class="j" d="M233.9,153.74c14-.43,25.87,16.35,25.26,29.85-.62,13.55-13.15,24.22-27.1,22.43"/><path class="a`" d="M195.28,171.17c9.78-25.56,45.38-26.94,57.1-2.14,7.37,15.44,.08,34.77-15.66,41.49-25.24,10.84-50.97-13.67-41.44-39.35h0Zm0,0c-7.66,20.05,8.11,41.67,29.47,40.56,26.22-1.39,38.22-33.16,19.46-51.53-15.31-14.95-41.43-9.14-48.93,10.96h0Z"/><g><circle class="o" cx="223.58" cy="181.49" r="30.5"/><path class="a`" d="M254.08,181.49c-.11,27.49-33.01,41.53-52.97,22.47-12.61-11.96-12.62-32.99,0-44.95,20.01-19.06,52.83-5.04,52.98,22.48h0Zm0,0c.07-21.41-22.32-35.91-41.77-27.22-23.55,10.59-23.55,43.86,0,54.45,19.46,8.69,41.84-5.82,41.77-27.23h0Z"/></g><g><path class="t" d="M49.66,187.91c49.53,27.52,56.75,30.96,49.87,73.61-10.7,29.35,175.12,22.2,143.08-19.95-33.94-70.17-.61-144.23-.61-144.23-36.69,45.86-126.31,98.37-192.34,90.57Z"/><path class="a`" d="M49.66,187.91c7.29,4,14.61,7.96,21.81,12.13,10.49,6.37,22.45,12.76,27.85,24.39,5,11.77,2.44,24.96,.75,37.17-4.1,12.43,27.15,15.4,35.19,16.16,27.04,2.34,84.2-.13,105.28-17.53,6.1-5.26,6.24-11.91,1.32-18.1-5.5-11.23-9.5-23.19-12.04-35.43-6.3-30.5-3.56-62.4,5.14-92.14,1.78-5.96,3.75-11.83,6.22-17.59l1.5,.92c-5.78,7.17-12.19,13.81-18.95,20.03-43.34,39.18-114.33,76.59-174.09,69.99h0Zm0,0c64.64,6.76,151.38-42.04,191.65-91.13l4.03-5.02-2.53,5.94c-18.6,46.51-21.18,104.2,3.42,148.22,7.6,20.46-31.71,28.17-45.55,30.62-24.35,4.2-76.09,7-97.35-5.42-3.41-2.05-5.91-6.05-4.34-9.7,.67-4.1,1.29-8.2,1.72-12.33,1.47-12.78,.84-25.08-9.16-34.38-5.96-5.77-13.14-10.14-20.22-14.43-7.15-4.25-14.42-8.3-21.66-12.39h0Z"/></g><path class="v" d="M117.65,285.13c-1.68,13.47,.59,22.96,6.88,30.73-9.05-1.59-18.11-3.9-28.66-8.25-16.51-8.94-16.28-15.59-15.44-38.75,7.34,9.48,21.77,12.87,37.22,16.28Z"/><path class="s" d="M231.24,190.78c-1.94-2.33,2.9,19.26,2.9,19.26,10.24-2.75,18.17-13.21,19.72-24.54-1.38,5.35-18.8,9.86-22.62,5.27Z"/><path class="m" d="M255.01,183.9c-.31,3.06-1.22,5.66-1.68,8.25,4.3-.81,10.32-6.17,12-12.15-2.5,2.26-7.42,3.97-10.32,3.9Z"/></g><g id="d"><path class="h" d="M93.42,216.88c-5.5-1.15-12.84-12.69-9.63-9.32,1.85,1.94,5.91,3.39,10.78,3.13,61.45-3.21,141.5-57.28,137.2-68.25-3.21-8.18,6.5,1.83,.99,12.23-3.92,32.05-3.18,49.64,6.34,70.62,4.13,15.13-34.11,26.92-81.86,30.57-7.85,.6-65.55-1.05-57.63-11.92,2.9-11.92-.69-14.52-6.19-27.06Z"/><path class="ad" d="M237.8,103.76c-13.84,14.2-29.68,27.29-47.16,39.44,.61,7.8,.15,16.66,4.74,30.73,5.26-1.26,33.4-20.78,32.79-24.99,1.48-13.27,4.39-27.46,9.63-45.17Z"/><path class="ac" d="M232.07,156.04c-2.18,3.28-6.06,7.57-9.94,10.09-5.69,4.12-21.07,16.25-24.46,22.93-5.04,9.93,.57,43.27,13.91,48.92,5.41,2.29,21.45-6.3,23.24-9.17,2.45-2.75,5.2-1.22-1.53-16.2-3.58-12.35-4.56-34.02-1.22-56.56Z"/><path class="ac" d="M144.71,208.32c-11.01,5.27-29.98,11-52.05,9.63,8.03,11.69,9.2,20.77,6.19,27.06,10.88,4.59,24.89,7.67,38.29,7.11,17.09-.33,18.96-17.76,7.57-43.8Z"/><path class="k" d="M237.88,233.23c1.31,1.33-6.71,6.86-11.77,9.02,4.28,7.7,8.78,14.23,7.8,22.47,14.52-7.49,13.76-16.51,3.97-31.49Z"/><path class="k" d="M102.06,250.51c-.87,2.18-.18,4.7-.92,6.34-6.68,14.83,9.77,16.44,28.43,20.18-2.07-6.23-1.39-13.46,.23-20.79-18.31-2.47-23.08-3.63-27.75-5.73Z"/><path class="ad" d="M50.46,188.14c15.59,8.37,17.43,9.86,22.13,12.73,4.96,2.86,12.84,12.04,23.04,10.55,14.4-2.1,34.07-5.9,45.52-10.66l-12.61-24.99c-26.48,10.2-59.96,14.9-78.08,12.38Z"/><path class="l" d="M265.87,263.69c-1.94,2.58-4.63,5.55-8,7.99,1.56,11.83-1.03,25.49-2.87,29.04,14.79-8.48,11.46-13.67,10.87-37.03Z"/></g><g id="e"><g><ellipse class="w" cx="119.33" cy="81.1" rx="131.79" ry="47.86" transform="translate(-24.02 64.75) rotate(-27.7)"/><path class="a`" d="M2.64,142.36c6.44,11.29,21.15,12.99,32.96,13.15,24.87-.32,49.1-7.7,72.05-16.77,43.61-18.17,91.53-46.19,119.76-84.77,6.37-9.61,13.17-22.28,7.71-33.65-6.27-10.95-20.56-12.53-32.08-12.76-47.76,1.32-98.08,24.86-137.79,50.43-20.51,13.74-40.34,29.49-54.73,49.78-6.58,9.82-13.53,22.88-7.89,34.6h0Zm0,0c-5.69-11.71,1.23-24.82,7.77-34.68,21.94-30.29,54.02-51.62,86.44-69.39C129.8,21.32,165.5,6.61,203.06,5.7c12.12,.14,27.26,2.02,33.84,13.69,5.87,12.05-1.19,25.57-7.95,35.62-22.08,30.39-54.46,51.42-87.14,68.91-33.04,16.58-68.81,30.88-106.2,31.73-11.83-.2-26.55-1.97-32.96-13.3h0Z"/></g><path class="q" d="M140.58,123.2c-12.56,6.59-25.03,12.22-37.07,16.83,8.13-3.5,16.39-7.43,24.69-11.79,64.44-33.83,106.73-80.22,94.44-103.63-9.87-18.81-52.02-17.04-101.66,1.97C175.85,2.96,224.33-.79,235.02,19.57c12.29,23.4-29.99,69.8-94.44,103.63Z"/></g><g id="f"><path class="a`" d="M2.11,142.08c6.44,11.29,21.15,12.99,32.96,13.15,24.87-.32,49.1-7.7,72.05-16.77,43.61-18.17,91.53-46.19,119.76-84.77,6.37-9.61,13.17-22.28,7.71-33.65-6.27-10.95-20.56-12.53-32.08-12.76-47.76,1.32-98.08,24.86-137.79,50.43-20.51,13.74-40.34,29.49-54.73,49.78-6.58,9.82-13.53,22.88-7.89,34.6h0Zm0,0c-5.69-11.71,1.23-24.82,7.77-34.68,21.94-30.29,54.02-51.62,86.44-69.39C129.27,21.04,164.97,6.33,202.53,5.42c12.12,.14,27.26,2.02,33.84,13.69,5.87,12.05-1.19,25.57-7.95,35.62-22.08,30.39-54.46,51.42-87.14,68.91-33.04,16.58-68.81,30.88-106.2,31.73-11.83-.2-26.55-1.97-32.96-13.3h0Z"/><g><path d="M106.26,217.64c-5.2,.92-7.73,1.44-11.01,0"/><path class="a`" d="M106.26,217.64c-3.44,1.3-7.78,2.32-11.01,0,3.7,.95,7.24-.08,11.01,0h0Z"/></g><path class="g" d="M92.5,216.77c-5.5-1.15-12.84-12.69-9.63-9.32,1.85,1.94,5.91,3.39,10.78,3.13,61.45-3.21,141.5-57.28,137.2-68.25-3.21-8.18,6.5,1.83,.99,12.23-3.92,32.05-3.18,49.64,6.34,70.62,4.13,15.13-34.11,26.92-81.86,30.57-7.85,.6-65.55-1.05-57.63-11.92,2.9-11.92-.69-14.52-6.19-27.06Z"/><path class="a`" d="M1.59,140.84c7.54,11.61,14.88,23.35,22.31,35.03,1.88,2.88,4.42,5.34,7.41,7.05,9.27,4.66,19.88,6.05,30.16,6.14,55.58-.59,126.42-38.8,166.33-76.54,4.96-4.8,9.67-9.88,13.85-15.36,2.07-2.69,3.4-5.9,4.22-9.21,2.37-10.08,1.15-20.62-.6-30.73-1.22-6.79-2.88-13.51-4.79-20.15-1.33-4.84-3.12-10.05-4.65-14.85l-.19-.63-.09-.33c-.03-.14-.06-.17-.07-.46,.28-.84,1.25-.09,.92-.21,.05,.07,.08,.12,.12,.17,4.67,7.38,1.63,16.49-2.15,23.53C202.77,100.08,62.03,182.72,1.59,140.84h0Zm0,0c60.22,41.26,200.5-41.21,232.01-96.95,3.62-6.82,6.62-15.57,2.13-22.64-.02-.03-.05-.08-.06-.1-.37-.19,.45,.39,.72-.28,1.51,5.13,3.58,10.73,5,15.94,4.48,16.34,9.06,34.46,5.36,51.36-.85,3.39-2.23,6.72-4.4,9.53-4.23,5.52-8.97,10.62-13.97,15.43-40,37.71-111.24,75.98-166.93,76.4-10.33-.16-21.01-1.61-30.31-6.36-3.02-1.75-5.57-4.25-7.46-7.17-7.37-11.73-14.63-23.51-22.11-35.16h0Z"/><path class="n" d="M199.4,82.34c-15.81,14.81-44.03,34.05-70.68,46.91-58.88,28.4-115.11,34.32-125.58,13.24-6.99-14.08,3.37-38.85,31.73-60.73-19.11,17.9-23.49,37.36-17.76,48.9,10.48,21.09,66.7,15.16,125.58-13.24,19.58-9.44,42.58-24.17,56.71-35.07Z"/></g></svg>