<?xml version="1.0" encoding="UTF-8"?><svg xmlns="http://www.w3.org/2000/svg" xmlns:xlink="http://www.w3.org/1999/xlink" viewBox="0 0 380.03 352.03"><defs><style>.j,.k,.l,.m{stroke:#231f20;stroke-miterlimit:10;}.j,.m,.n{fill:none;}.o{fill:#5b3e3c;}.p{fill:#7f5e55;}.q{fill:#563938;}.r{fill:#f7e3e2;}.k{fill:#af9385;}.l,.m{stroke-width:2px;}.l,.s{fill:#c4a5a5;}.t{fill:#99807e;}.u{clip-path:url(#b);}.v{fill:#997164;}.w{fill:#b7a8a7;}.x{fill:url(#d);}.y{fill:#563c3b;}.a`{fill:#b2a5a4;}.aa{fill:#846f6e;}.ab{fill:#704a47;}.ac{fill:#775c58;}.ad{fill:#72544c;}.ae{fill:#ddc9c7;}.af{fill:#bcaead;}.ag{fill:#231f20;}.ah{fill:#845e5e;}.ai{fill:#89645b;}.aj{fill:#89756d;}.ak{fill:#543938;}</style><clipPath id="b"><circle class="l" cx="204.02" cy="176.01" r="175.01"/></clipPath><radialGradient id="d" cx="204.02" cy="176.01" fx="204.02" fy="176.01" r="162.69" gradientTransform="matrix(1, 0, 0, 1, 0, 0)" gradientUnits="userSpaceOnUse"><stop offset="0" stop-color="#fff"/><stop offset="1" stop-color="#282828"/></radialGradient></defs><g id="a"><g><circle class="s" cx="204.02" cy="176.01" r="175.01"/><g class="u"><circle class="l" cx="204.02" cy="176.01" r="162.97"/></g><circle class="m" cx="204.02" cy="176.01" r="175.01"/></g></g><g id="c"><circle class="x" cx="204.02" cy="176.01" r="162.69"/><ellipse cx="219.57" cy="291.54" rx="95.96" ry="28.2" transform="translate(-60.43 57.44) rotate(-13.12)"/><path d="M205.68,278.96c-7.46,4.17,32.13-.48,70.06-8.8,37.93-8.32,68.07-17.88,67.31-21.35s-36.12-3.45-70.06,8.8c-14.77,5.33-59.01,16.71-67.31,21.35Z"/></g><g id="e"/><g id="f"><g><path class="y" d="M293.86,184.21c-18.77,1.52-38.42,15.92-49.19,16.62l-.02-.05c-.91,.16-1.85,.19-2.81,.07-5.45-.69-9.28-5.92-8.55-11.66,.3-2.37,1.33-4.46,2.82-6.05l-.18-.36c6.86-7.13,37.45-10.4,50.09-21.33,47.15-40.77,61.15-13.12,61.15-13.12,1.54,3.08,13.74,30.5-53.31,35.89Z"/><path class="ag" d="M293.87,184.41c-8.66,.86-16.81,4.18-24.6,7.92-5.71,2.64-14.99,7.84-21.04,9.46-1.41,.46-3.05,.6-4.55,.86l-.54-1.15-.02-.05,1.8,.97c-5.04,1.08-10.42-1.87-12.5-6.53-2.23-4.61-1.32-10.42,2.2-14.15l-.34,2.3-.18-.35-.66-1.32c3.58-3.91,8.27-5.49,12.94-7.12,7.97-2.64,16.05-4.63,23.88-7.46,4.81-1.76,9.45-3.73,13.53-6.71,5.68-4.67,11.43-9.26,17.67-13.19,10.66-6.51,23.91-12.88,36.52-8.45,14.5,5.39,15.88,22.75,3.91,31.72-12.88,9.68-32.36,11.62-48.02,13.26h0Zm-.03-.4c12.43-.98,25-2.85,36.57-7.65,7.27-3.15,15.06-8.11,17.15-16.13,3.13-13.81-9.69-21.78-22.17-19.47-14.75,2.67-27.12,12.4-38.27,21.92-4.51,3.9-10.13,6.45-15.56,8.57-7.82,3.05-15.98,5.2-23.85,7.9-3.48,1.28-7.72,2.6-10.32,5.03l.36-2.32,.17,.36,.63,1.28c-6.95,6.05-2.4,17.55,7.13,15.46l.47,1.15,.02,.05-1.63-.99c8.18-.83,16.3-5.34,24.1-8.26,8.11-3.16,16.44-6.21,25.19-6.91h0Z"/></g><path class="ah" d="M344.43,145.94c-4.61-2.32-22.49-7.04-52.02,17.35-9.68,8-35.52,14.72-40.65,19.71l.19,.16c-1.12,1.12-1.79,2.42-1.8,3.77,0,.23,.02,.46,.06,.68-2.21-.83-3.65-2.44-3.63-4.44,.01-1.35,.69-2.65,1.8-3.77l-.19-.16c5.1-4.16,33.57-11.14,41.36-19.85,28.59-27.36,50.27-16.89,50.27-16.89,.38,.34,4,1.95,4.61,3.43Z"/><g><path class="ae" d="M265.55,268.84c10.33,10.94-29.96,35.46-83.46,36.08-52.12,.6-94.01-7.52-101.66-20.49-5.04-8.56,41.01-29.08,93.09-31.38,52.08-2.3,86.84,10.28,92.03,15.79Z"/><path class="ag" d="M265.62,268.77c6.1,7.2-6.54,15.63-11.96,18.91-37.16,20.99-81.83,19.53-123.01,15.29-12.5-1.6-25.1-3.71-36.9-8.32-5.19-2.17-10.88-4.86-14.03-9.85-1.63-3.11,1.41-6.05,3.55-7.88,10.16-7.77,22.51-11.8,34.53-15.61,32.32-9.52,66.68-11.76,100.02-7.19,12.48,1.75,24.89,4.37,36.72,8.73,3.87,1.58,7.94,3.05,11.08,5.91h0Zm-.15,.14c-10.36-8.15-34.54-12.09-47.8-13.64-33.22-3.51-67.2-1.44-99.33,7.91-11.81,3.63-24.07,7.55-34.02,15.02-1.58,1.4-3.93,3.3-3.35,5.55,2.84,4.84,8.29,7.32,13.33,9.51,11.64,4.62,24.11,6.77,36.5,8.43,40.96,4.33,85.55,6.41,122.75-14.19,5.38-3.24,17.85-11.6,11.92-18.6h0Z"/></g><g><circle class="ab" cx="246.4" cy="188.7" r="21.67"/><path class="ag" d="M268.07,188.7c-.03,19.47-23.48,29.49-37.6,15.93-8.91-8.39-8.92-23.47,0-31.86,14.16-13.56,37.53-3.57,37.6,15.93h0Zm0,0c-.08-19.02-23.21-28.3-36.38-14.71-7.89,7.85-7.89,21.57,0,29.43,13.17,13.59,36.31,4.3,36.38-14.72h0Z"/></g><path class="ag" d="M24.95,190.16c5.18,10.48,18.77,12.83,29.33,13.78,33.99,1.69,67.38-9.83,97.35-24.99,27.07-14.69,89.86-47.19,92.94-80.02,.52-5.27-.26-11.11-4.87-14.42-6.7-4.96-15.5-5.77-23.67-6.13-33.85-.02-66.92,10.83-97.73,24.2-30.54,14.09-61.05,31.19-83.32,56.89-6.62,8.3-14.48,19.73-10.04,30.68h0Zm0,0c-4.51-10.94,3.35-22.45,9.93-30.77,28.56-32.81,73.95-55.96,114.56-70.32,21.48-7.16,43.84-12.76,66.65-12.53,10.52,.4,26.22,1.95,29.92,13.8,6.63,31.32-41.18,59.63-64.08,73.3-38.69,22.48-81.9,42.71-127.66,40.44-10.64-1.01-24.12-3.38-29.32-13.92h0Z"/><g><path class="v" d="M1.39,155.57c.36,.36,15.3,24.1,22.01,34.79,2.37,3.77,5.78,6.79,9.88,8.53,55.56,23.6,172.28-38.89,208.65-86.89,17.2-22.7-12-88.36-5.12-74.6C256.33,76.45,74.77,205.55,1.39,155.57Z"/><path class="ag" d="M1.39,155.57c7.58,11.58,14.95,23.31,22.41,34.96,1.88,2.86,4.42,5.29,7.38,6.98,9.25,4.62,19.84,5.97,30.09,6.03,55.23-.65,126.33-39.13,165.98-76.66,4.94-4.79,9.64-9.85,13.79-15.3,2.02-2.63,3.32-5.76,4.13-9.03,2.34-10,1.13-20.46-.61-30.52-1.22-6.77-2.87-13.47-4.77-20.1-1.39-5.06-3.27-10.46-4.84-15.49l-.09-.35-.05-.2c-.01-.1-.04-.11-.04-.42,.58-1.67,2.53-.18,1.81-.48,.08,.1,.1,.14,.14,.21l.19,.32,.32,.6c4.12,7.43,1.01,16.22-2.64,23.11C202.86,115.32,62.01,197.64,1.39,155.57h0Zm0,0c59.94,41.08,200.29-41.77,231.57-97.18,3.49-6.61,6.48-15.03,2.29-21.91l-.14-.24s-.05-.07-.04-.06c-.75-.36,1.03,.95,1.61-.54,1.5,4.51,3.53,10.76,4.98,15.77,4.5,16.43,9.1,34.61,5.37,51.62-.86,3.44-2.26,6.84-4.48,9.71-4.25,5.55-9.01,10.66-14.02,15.49-39.76,37.67-111.78,76.14-167.27,76.28-10.36-.18-21.07-1.68-30.38-6.47-3.03-1.77-5.6-4.3-7.48-7.24-7.33-11.75-14.57-23.55-22.01-35.22h0Z"/></g><path class="ag" d="M232.68,169.02c-1.07,5.32-7.82,11.56-12.86,13.32,2.62-1.74,4.98-3.75,7.17-5.99,2.08-2.26,4.45-4.48,5.7-7.33h0Z"/><path class="a`" d="M100.8,269.3c-31.18,12.27-19.09,17.69-9.75,22.36,11.24,5.62,26.83,7.91,26.83,7.91,6.43-3.78,10.28-5.12,10.09-5.62-.16-.41-4.54-.63-8.03-1.38-7.46-1.6-25.96-6.48-20.52-16.05,.55-.96,.27-4.9,1.38-7.22Z"/><path class="ai" d="M6.67,162.9l19.03,29.58c16.05,18.8,63.97,11.01,99.97-2.98,0,0-18.8-35.08-18.19-34.39-45.07,18.12-94.26,22.28-100.82,7.8Z"/><path class="ac" d="M238.49,48.03c22.06,67.62,1.64,71.64-45.4,105.86-4.15-16.37-4.6-30.86-8.25-40.05,39.86-25.68,55.34-58.47,53.66-65.81Z"/><path class="af" d="M246.13,260.59c1.71,9.56,.43,13.79-7.64,19.41l17.43,5.66c20.03-15.29,10.24-19.72-9.78-25.07Z"/><path class="p" d="M265.85,278.78c-2,2.62-4.78,5.63-8.25,8.1l1.68,26.9c8.56-4.43,7.18-11.31,6.57-35.01Z"/><path class="ag" d="M238.74,168.11c18.41-6.33,35.54,12.55,27.35,30.32-5.02,11.16-19.26,16.1-30.11,10.42-17.44-8.95-15.64-34.3,2.76-40.74h0Zm0,0c-17.94,6.29-19.16,31.19-2.01,39.19,10,4.88,22.97,.4,27.81-9.62,8.54-16.9-7.81-35.72-25.8-29.57h0Z"/><path class="n" d="M233.9,169.32c14-.43,25.87,16.35,25.26,29.85-.62,13.55-13.15,24.22-27.1,22.43"/><path class="ag" d="M195.28,186.75c9.78-25.56,45.38-26.94,57.1-2.14,7.37,15.44,.08,34.77-15.66,41.49-25.24,10.84-50.97-13.67-41.44-39.35h0Zm0,0c-7.66,20.05,8.11,41.67,29.47,40.56,26.22-1.39,38.22-33.16,19.46-51.53-15.31-14.95-41.43-9.14-48.93,10.96h0Z"/><g><circle class="t" cx="223.58" cy="197.07" r="30.5"/><path class="ag" d="M254.08,197.07c-.12,27.36-32.94,41.23-52.67,22.17-12.35-11.84-12.36-32.5,0-44.35,19.73-19.07,52.56-5.19,52.67,22.17h0Zm0,0c.08-21.46-22.31-36.11-41.9-27.54-24.04,10.56-24.04,44.52,0,55.08,19.6,8.57,41.99-6.08,41.91-27.54h0Z"/></g><g><path class="ab" d="M49.66,203.49c49.53,27.52,56.75,30.96,49.87,73.61-10.7,29.35,175.12,22.2,143.08-19.95-33.94-70.17-.61-144.23-.61-144.23-36.69,45.86-126.31,98.37-192.34,90.57Z"/><path class="ag" d="M49.66,203.49c7.29,4,14.61,7.96,21.81,12.13,10.49,6.37,22.45,12.76,27.85,24.39,5,11.77,2.44,24.96,.75,37.17-4.1,12.43,27.15,15.4,35.19,16.16,27.04,2.34,84.2-.13,105.28-17.53,6.1-5.26,6.24-11.91,1.32-18.1-5.5-11.23-9.5-23.19-12.04-35.43-6.3-30.5-3.56-62.4,5.14-92.14,1.78-5.96,3.75-11.83,6.22-17.59l1.5,.92c-5.78,7.17-12.19,13.81-18.95,20.03-43.34,39.18-114.33,76.59-174.09,69.99h0Zm0,0c64.64,6.76,151.38-42.04,191.65-91.13l4.03-5.02-2.53,5.94c-18.6,46.51-21.18,104.2,3.42,148.22,7.6,20.46-31.71,28.17-45.55,30.62-24.35,4.2-76.09,7-97.35-5.42-3.41-2.05-5.91-6.05-4.34-9.7,.67-4.1,1.29-8.2,1.72-12.33,1.47-12.78,.84-25.08-9.16-34.38-5.96-5.77-13.14-10.14-20.22-14.43-7.15-4.25-14.42-8.3-21.66-12.39h0Z"/></g><path class="ak" d="M50.46,203.72c15.59,8.37,17.43,9.86,22.13,12.73,4.96,2.86,12.84,12.04,23.04,10.55,14.4-2.1,34.07-5.9,45.52-10.66l-12.61-24.99c-26.48,10.2-59.96,14.9-78.08,12.38Z"/><path class="o" d="M237.88,248.82c1.31,1.33-6.71,6.86-11.77,9.02,4.28,7.7,8.78,14.23,7.8,22.47,14.52-7.49,13.76-16.51,3.97-31.49Z"/><path class="o" d="M102.06,266.09c-.87,2.18-.18,4.7-.92,6.34-6.68,14.83,9.77,16.44,28.43,20.18-2.07-6.23-1.39-13.46,.23-20.79-18.31-2.47-23.08-3.63-27.75-5.73Z"/><path class="aa" d="M231.15,206.47c-1.94-2.33,2.9,19.26,2.9,19.26,10.24-2.75,18.17-13.21,19.72-24.54-1.38,5.35-18.8,9.86-22.62,5.27Z"/><path class="q" d="M255.15,199.59c-.31,3.06-1.22,5.66-1.68,8.25,4.3-.81,10.32-6.17,12-12.15-2.5,2.26-7.42,3.97-10.32,3.9Z"/><path class="ad" d="M117.65,300.71c-1.68,13.47,.59,24.1,6.88,31.87-9.05-1.59-18.65-4.61-28.66-8.71-16.51-8.94-16.28-16.28-15.44-39.44,6.03,9.65,21.77,12.87,37.22,16.28Z"/></g><g id="g"><path class="k" d="M93.42,232.46c-5.5-1.15-12.84-12.69-9.63-9.32,1.85,1.94,5.91,3.39,10.78,3.13,61.45-3.21,141.5-57.28,137.2-68.25-3.21-8.18,6.5,1.83,.99,12.23-3.92,32.05-3.18,49.64,6.34,70.62,4.13,15.13-34.11,26.92-81.86,30.57-7.85,.6-65.55-1.05-57.63-11.92,2.9-11.92-.69-14.52-6.19-27.06Z"/><path class="ak" d="M237.8,119.34c-13.84,14.2-29.68,27.29-47.16,39.44,.61,7.8,.15,16.66,4.74,30.73,5.26-1.26,33.4-20.78,32.79-24.99,1.48-13.27,4.39-27.46,9.63-45.17Z"/><path class="aj" d="M232.07,171.62c-2.18,3.28-6.06,7.57-9.94,10.09-5.69,4.12-21.07,16.25-24.46,22.93-5.04,9.93,.57,43.27,13.91,48.92,5.41,2.29,21.45-6.3,23.24-9.17,2.45-2.75,5.2-1.22-1.53-16.2-3.58-12.35-4.56-34.02-1.22-56.56Z"/><path class="aj" d="M144.71,223.9c-11.01,5.27-29.98,11-52.05,9.63,8.03,11.69,9.2,20.77,6.19,27.06,10.88,4.59,24.89,7.67,38.29,7.11,17.09-.33,18.96-17.76,7.57-43.8Z"/></g><g id="h"><g><ellipse class="ae" cx="119.33" cy="96.69" rx="131.79" ry="47.86" transform="translate(-31.27 66.54) rotate(-27.7)"/><path class="ag" d="M2.64,157.94c6.44,11.29,21.15,12.99,32.96,13.15,24.87-.32,49.1-7.7,72.05-16.77,43.61-18.17,91.53-46.19,119.76-84.77,6.37-9.61,13.17-22.28,7.71-33.65-6.27-10.95-20.56-12.53-32.08-12.76-47.76,1.32-98.08,24.86-137.79,50.43-20.51,13.74-40.34,29.49-54.73,49.78-6.58,9.82-13.53,22.88-7.89,34.6h0Zm0,0c-5.69-11.71,1.23-24.82,7.77-34.68,21.94-30.29,54.02-51.62,86.44-69.39,32.95-16.97,68.65-31.67,106.21-32.59,12.12,.14,27.26,2.02,33.84,13.69,5.87,12.05-1.19,25.57-7.95,35.62-22.08,30.39-54.46,51.42-87.14,68.91-33.04,16.58-68.81,30.88-106.2,31.73-11.83-.2-26.55-1.97-32.96-13.3h0Z"/></g><path class="w" d="M140.58,138.79c-12.56,6.59-25.03,12.22-37.07,16.83,8.13-3.5,16.39-7.43,24.69-11.79,64.44-33.83,106.73-80.22,94.44-103.63-9.87-18.81-52.02-17.04-101.66,1.97,54.87-23.62,103.35-27.37,114.04-7.01,12.29,23.4-29.99,69.8-94.44,103.63Z"/></g><g id="i"><path class="ag" d="M2.11,157.66c6.44,11.29,21.15,12.99,32.96,13.15,24.87-.32,49.1-7.7,72.05-16.77,43.61-18.17,91.53-46.19,119.76-84.77,6.37-9.61,13.17-22.28,7.71-33.65-6.27-10.95-20.56-12.53-32.08-12.76-47.76,1.32-98.08,24.86-137.79,50.43-20.51,13.74-40.34,29.49-54.73,49.78-6.58,9.82-13.53,22.88-7.89,34.6h0Zm0,0c-5.69-11.71,1.23-24.82,7.77-34.68,21.94-30.29,54.02-51.62,86.44-69.39,32.95-16.97,68.65-31.67,106.21-32.59,12.12,.14,27.26,2.02,33.84,13.69,5.87,12.05-1.19,25.57-7.95,35.62-22.08,30.39-54.46,51.42-87.14,68.91-33.04,16.58-68.81,30.88-106.2,31.73-11.83-.2-26.55-1.97-32.96-13.3h0Z"/><g><path d="M106.26,233.22c-5.2,.92-7.73,1.44-11.01,0"/><path class="ag" d="M106.26,233.22c-3.44,1.3-7.78,2.32-11.01,0,3.7,.95,7.24-.08,11.01,0h0Z"/></g><path class="j" d="M92.5,232.35c-5.5-1.15-12.84-12.69-9.63-9.32,1.85,1.94,5.91,3.39,10.78,3.13,61.45-3.21,141.5-57.28,137.2-68.25-3.21-8.18,6.5,1.83,.99,12.23-3.92,32.05-3.18,49.64,6.34,70.62,4.13,15.13-34.11,26.92-81.86,30.57-7.85,.6-65.55-1.05-57.63-11.92,2.9-11.92-.69-14.52-6.19-27.06Z"/><path class="ag" d="M1.59,156.42c7.54,11.61,14.88,23.35,22.31,35.03,1.88,2.88,4.42,5.34,7.41,7.05,9.27,4.66,19.88,6.05,30.16,6.14,55.58-.59,126.42-38.8,166.33-76.54,4.96-4.8,9.67-9.88,13.85-15.36,2.07-2.69,3.4-5.9,4.22-9.21,2.37-10.08,1.15-20.62-.6-30.73-1.22-6.79-2.88-13.51-4.79-20.15-1.33-4.84-3.12-10.05-4.65-14.85l-.19-.63-.09-.33c-.03-.14-.06-.17-.07-.46,.28-.84,1.25-.09,.92-.21,.05,.07,.08,.12,.12,.17,4.67,7.38,1.63,16.49-2.15,23.53C202.77,115.66,62.03,198.3,1.59,156.42h0Zm0,0c60.22,41.26,200.5-41.21,232.01-96.95,3.62-6.82,6.62-15.57,2.13-22.64-.02-.03-.05-.08-.06-.1-.37-.19,.45,.39,.72-.28,1.51,5.13,3.58,10.73,5,15.94,4.48,16.34,9.06,34.46,5.36,51.36-.85,3.39-2.23,6.72-4.4,9.53-4.23,5.52-8.97,10.62-13.97,15.43-40,37.71-111.24,75.98-166.93,76.4-10.33-.16-21.01-1.61-30.31-6.36-3.02-1.75-5.57-4.25-7.46-7.17-7.37-11.73-14.63-23.51-22.11-35.16h0Z"/><path class="r" d="M199.4,97.92c-15.81,14.81-44.03,34.05-70.68,46.91-58.88,28.4-115.11,34.32-125.58,13.24-6.99-14.08,3.37-38.85,31.73-60.73-19.11,17.9-23.49,37.36-17.76,48.9,10.48,21.09,66.7,15.16,125.58-13.24,19.58-9.44,42.58-24.17,56.71-35.07Z"/><g><path class="v" d="M80.27,284.89v17.44c0,10.33,5.66,16.51,14.37,20.8,22.73,11.2,59.85,14.49,82.39,14.49s59.34-3.79,83.62-23.4c4.49-3.62,6.67-6.31,6.56-12.35l-.45-26.32c-19.72,38.06-163.26,35.7-186.5,9.33Z"/><path class="ag" d="M80.27,284.89l.13,16.13c-.01,2.66,.19,5.36,.99,7.91,2.31,7.96,9.83,12.61,17.11,15.52,14.9,6.1,30.92,8.88,46.85,10.67,31.69,3.2,65.02,2.76,94.76-9.79,7.31-3.19,14.27-7.21,20.43-12.28,2.03-1.68,3.91-3.48,4.82-5.74,1.01-2.29,.87-5.06,.83-7.54l-.13-8.06-.25-16.12,1.8,.42c-13.68,24.32-66.61,28.52-92.13,29.07-24.29,.52-78.12-2.34-95.21-20.18h0Zm0,0c10.24,10.48,31.71,14.07,45.88,16.24,32.58,4.21,66.07,3.76,98.24-3.17,11.85-2.83,23.92-6.49,33.72-13.9,3.17-2.47,6-5.43,7.81-8.95l1.73-3.36c-.01,2.26,.36,17.26,.37,19.9l.15,8.06c.06,2.6,.22,5.61-.96,8.34-1.1,2.68-3.25,4.72-5.41,6.5-6.32,5.17-13.46,9.27-20.93,12.5-30.11,12.59-63.69,13.04-95.67,9.42-16-1.98-32.14-4.85-47.02-11.28-7.32-3.05-14.98-8.03-17.17-16.16-.76-2.61-.92-5.34-.86-8.04l.13-16.11h0Z"/></g></g></svg>