<?xml version="1.0" encoding="UTF-8"?><svg id="a" xmlns="http://www.w3.org/2000/svg" viewBox="0 0 313.62 358.99"><defs><style>.b{fill:#fff;stroke-width:1.02px;}.b,.c{stroke:#231f20;stroke-linecap:round;stroke-miterlimit:10;}.c{stroke-width:3px;}.c,.d{fill:#8e1921;}.e{fill:#231f20;}</style></defs><g><path class="d" d="M213.02,123.64c0,49.36-40.01,89.38-89.37,89.38S34.27,173,34.27,123.64,74.29,34.27,123.65,34.27s89.37,40.01,89.37,89.37Z"/><path class="e" d="M213.02,123.64c.51,35.5-22.22,69.48-54.99,83.02-59.32,25.07-125.14-18.62-125.26-83.01,.1-64.4,65.94-108.09,125.26-83.02,32.76,13.54,55.5,47.52,54.99,83.02h0Zm0,0c.28-35.31-22.44-69.27-55.35-82.14C99.79,17.88,35.47,61.11,35.77,123.65c-.3,62.54,64.04,105.78,121.91,82.15,32.9-12.88,55.63-46.84,55.34-82.15h0Z"/></g><g><path class="d" d="M213.02,123.64c0,49.36-40.01,89.38-89.37,89.38S34.27,173,34.27,123.64,74.29,34.27,123.65,34.27s89.37,40.01,89.37,89.37Z"/><path class="e" d="M213.02,123.64c.51,35.5-22.22,69.48-54.99,83.02-59.32,25.07-125.14-18.62-125.26-83.01,.1-64.4,65.94-108.09,125.26-83.02,32.76,13.54,55.5,47.52,54.99,83.02h0Zm0,0c.28-35.31-22.44-69.27-55.35-82.14C99.79,17.88,35.47,61.11,35.77,123.65c-.3,62.54,64.04,105.78,121.91,82.15,32.9-12.88,55.63-46.84,55.34-82.15h0Z"/></g><path class="c" d="M212.17,209.05l-6.81,5.37c24.82-22.35,40.43-54.74,40.43-90.78C245.79,56.19,191.1,1.5,123.65,1.5S1.5,56.19,1.5,123.64s54.69,122.15,122.15,122.15c25.67,0,49.49-7.92,69.15-21.45l-7.77,6.13,92.86,126.43,33.57-24.28-99.29-123.57Zm-88.52,3.97c-49.36,0-89.38-40.02-89.38-89.38S74.29,34.27,123.65,34.27s89.37,40.01,89.37,89.37-40.01,89.38-89.37,89.38Z"/><ellipse class="b" cx="123.6" cy="122.97" rx="87.86" ry="87.5"/></svg>