<?xml version="1.0" encoding="UTF-8"?><svg xmlns="http://www.w3.org/2000/svg" xmlns:xlink="http://www.w3.org/1999/xlink" viewBox="0 0 302.64 371.2"><defs><style>.h{fill:#827170;}.i{fill:url(#f);opacity:.49;stroke-width:2px;}.i,.j,.k{stroke:#231f20;stroke-miterlimit:10;}.l{fill:#fff;}.m{fill:#c9e8f4;}.n{fill:#6d141c;}.o{fill:#99807e;}.j{fill:url(#e);}.j,.k{stroke-width:2px;}.k{fill:#c4c4c4;}.p{fill:#8e1921;}.q{fill:#231f20;}</style><linearGradient id="e" x1="21.24" y1="130.1" x2="176.79" y2="130.1" gradientTransform="translate(-35.17 18.48) rotate(-8.17)" gradientUnits="userSpaceOnUse"><stop offset="0" stop-color="#fff"/><stop offset=".12" stop-color="#fafafa"/><stop offset=".24" stop-color="#ededed"/><stop offset=".37" stop-color="#d8d8d8"/><stop offset=".5" stop-color="#bababa"/><stop offset=".63" stop-color="#939393"/><stop offset=".77" stop-color="#636363"/><stop offset=".9" stop-color="#2c2c2c"/><stop offset="1" stop-color="#000"/></linearGradient><linearGradient id="f" x1="93.38" y1="114.06" x2="248.93" y2="114.06" xlink:href="#e"/></defs><g id="a"><g><path class="p" d="M161.57,200.72c1.87-1.67,39.41,97.75,39.41,97.75,44.62,138.93,176.54,46.62,40.07-39.99-.99-.97-79.48-57.76-79.48-57.76Z"/><path class="q" d="M161.57,200.72c.12-.06,.22,.07,.3,.15,1.07,1.43,1.75,3.1,2.55,4.69,2.44,5.15,4.67,10.4,6.89,15.65,8.83,21.02,17.21,42.21,25.47,63.46,2.53,6.19,5.81,15.16,8.02,21.34,5.31,14.05,12.25,27.68,21.92,39.22,13.31,16.56,37.66,30.42,58.14,18.74,21.4-12.93,16.78-40.55,4.8-58.66-12.22-19.22-30.47-33.64-49.33-46.09-1.19-.9-3.59-2.72-4.79-3.6-20.21-14.97-53.54-39.62-73.96-54.9h0Zm0,0c25.09,17.57,50.27,35.4,75.13,53.31,1.43,1.08,3.68,2.61,5.07,3.72,11.97,7.47,25.43,17.33,35.81,28.13,61.74,63.14-4,118.93-52.9,61.05-9.84-11.84-16.85-25.73-22.01-40.14-2.1-6.27-5.32-15.18-7.71-21.43-5.52-14.9-18.64-49.55-24.25-63.91-1.35-3.41-4.98-12.5-6.45-15.82-.75-1.61-1.38-3.3-2.4-4.76-.08-.07-.17-.21-.29-.15h0Z"/></g><path class="n" d="M298.21,349.73c-13.9,30.56-70.79,29.24-97.17-52.9,0,0-.41-1.08-1.15-3.04,3.7,5.12,5.99,8.28,5.99,8.28,33.61,51.96,71.55,59.68,92.33,47.65Z"/></g><g id="b"><g><circle class="o" cx="178.06" cy="213.48" r="28.21"/><path class="q" d="M205.98,209.47c3.58,25.28-24.89,42.8-45.87,27.97-13.45-9.4-16.29-29.09-6.02-41.9,15.95-20.14,48.23-11.33,51.89,13.94h0Zm0,0c-2.05-15.08-16.86-25.82-31.8-22.92-14.14,2.36-24.37,16.64-22.08,30.66,1.74,14.1,15.58,24.94,29.82,23.22,15.15-1.43,26.33-15.9,24.06-30.95h0Z"/></g><path class="h" d="M206.03,208.72c.95,7.53-1.14,15.43-6.42,21.69-10.04,11.91-27.84,13.42-39.75,3.38-7.94-6.7-11.26-16.84-9.61-26.39,.85,6.78,4.16,13.27,9.8,18.02,11.91,10.05,29.71,8.54,39.75-3.38,3.34-3.96,5.4-8.56,6.23-13.32Z"/></g><g id="c"><path class="q" d="M155.64,232.44c-16.95-19.09-2.89-49.43,22.79-48.65,16.41,.41,29.65,15.26,28.17,31.6-2.17,25.6-33.94,36.08-50.95,17.05h0Zm0,0c10.04,11.44,28.32,12.21,39.17,1.54,10.49-9.78,11.12-27.33,1.47-37.75-9.24-10.79-26.76-12.19-37.68-2.88-11.84,9.56-13.17,27.8-2.96,39.09h0Z"/></g><g id="d"><path class="q" d="M186.94,80.84c20.45,35.63,24.89,82.67,2.98,118.68-22.86,38.21-70.41,49.18-110.15,31.75-25.78-10.91-46.93-31.24-60.74-55.42C5.41,151.58-1.12,122.97,2.8,95.25,8.3,52.22,42.21,17.08,86.74,17.17c42.15-.23,80.18,27.79,100.2,63.67h0Zm0,0c-20.12-35.6-58.18-63.62-100.19-62.72C42.96,18.66,10.36,53.28,5.34,95.6c-3.69,27.13,2.87,55.09,16.3,78.78,13.38,23.72,33.99,43.74,59.14,54.54,38.85,17.49,85.35,7.38,108.35-29.89,22.4-35.55,17.97-82.6-2.18-118.18h0Z"/><path class="q" d="M211.28,65.84c20.45,35.63,24.89,82.67,2.98,118.68-22.86,38.21-70.41,49.18-110.15,31.75-25.78-10.91-46.93-31.24-60.74-55.42-13.62-24.28-20.15-52.89-16.23-80.61C32.63,37.22,66.55,2.08,111.08,2.17c42.15-.23,80.18,27.79,100.2,63.67h0Zm0,0C191.16,30.24,153.1,2.22,111.09,3.12,67.3,3.65,34.7,38.28,29.68,80.6c-3.69,27.13,2.87,55.09,16.3,78.78,13.38,23.72,33.99,43.74,59.14,54.54,38.85,17.49,85.35,7.38,108.35-29.89,22.4-35.55,17.97-82.6-2.18-118.18h0Z"/><path class="j" d="M172.21,218.83c-4.27,3.82-8.97,7.22-14.1,10.12-46.01,26.03-108.58,2.47-139.76-52.64C-12.84,121.2-.83,55.42,45.18,29.39c3.34-1.88,6.75-3.52,10.24-4.89C21.37,54.95,14.97,112.34,42.68,161.3c28.92,51.12,84.87,75.1,129.53,57.52Z"/><path class="k" d="M187.12,212.27c-3.33,1.88-6.75,3.51-10.23,4.88,34.05-30.45,40.43-87.84,12.73-136.8C160.7,29.24,104.78,5.26,60.1,22.83c4.27-3.83,8.98-7.22,14.11-10.12,46.01-26.03,108.57-2.47,139.76,52.64,31.18,55.11,19.16,120.88-26.85,146.92Z"/><path class="i" d="M186.56,210.55c-3.33,1.88-6.75,3.5-10.23,4.87,34.06-30.38,40.47-87.61,12.79-136.43C160.22,28.04,104.31,4.14,59.63,21.68c4.27-3.82,8.98-7.2,14.11-10.1,46.01-25.98,108.57-2.5,139.73,52.44,31.16,54.94,19.11,120.54-26.91,146.52Z"/></g><g id="g"><g><path class="l" d="M175.28,216.93c-44.56,17.63-100.44-6.55-129.36-57.97C18.22,109.69,24.55,52,58.5,21.42c44.58-17.62,100.43,6.56,129.35,57.98,27.7,49.26,21.39,106.95-12.56,137.53Z"/><path class="q" d="M175.28,216.93c-49.22,19.62-103.88-11.99-128.62-55.21C20.55,119.06,18.8,55.82,58.13,20.49c42.89-16.93,91.49,5.58,118.31,40.37,35.09,43.52,43.03,115.96-1.16,156.06h0Zm0,0c48.15-45.33,32.44-127.22-12.87-168.88C135.53,21.9,93.81,8.45,59.17,22.17,20.75,57.14,22.64,118.79,47.99,160.94c24.21,43.01,78.32,74.79,127.3,55.99h0Z"/></g><path class="m" d="M61.87,50.46c-12.24,14.08-7,35.47-2.98,51.85,6.22,25.35,20.33,52.77,27.47,50.96,8.07-2.05-3.55-38.71,15.82-54.39,13.51-10.94,29.97-1.84,34.04-9.75,6.5-12.62-26.08-53.86-55.68-48.99-1.68,.28-11.47,2.04-18.67,10.33Z"/></g></svg>