<?xml version="1.0" encoding="UTF-8"?><svg id="a" xmlns="http://www.w3.org/2000/svg" viewBox="0 0 301.26 373.24"><defs><style>.b{fill:#fff;}.c{fill:#4c4b4b;}.d{fill:#d1d1d1;stroke-width:3px;}.d,.e,.f{stroke:#231f20;stroke-miterlimit:10;}.g{fill:#686464;}.h{fill:#6d141c;}.e{fill:#c4c4c4;stroke-width:4px;}.i{fill:#e5e5e5;}.f{fill:#282828;opacity:.49;stroke-width:2px;}.j{fill:#8e1921;}.k{fill:#231f20;}</style></defs><g><path class="j" d="M165.81,197.58c1.95-1.58,35,99.42,35,99.42,38.36,140.78,174.28,54.46,41.81-38.16-.95-1.01-76.81-61.26-76.81-61.26Z"/><path class="k" d="M165.81,197.58c.12-.05,.21,.08,.29,.16,1.01,1.47,1.63,3.17,2.36,4.79,2.23,5.25,4.26,10.58,6.25,15.92,7.97,21.36,15.47,42.89,22.82,64.47,2.26,6.28,5.17,15.41,7.11,21.66,4.69,14.22,11.04,28.09,20.17,39.98,43.51,55.87,106.09,8.15,50.79-54.7-9.96-11.38-21.69-21.15-33.99-30.08-1.14-.95-3.43-2.86-4.58-3.79-22.85-18.6-48.46-39.54-71.23-58.4h0Zm0,0c23.91,18.19,49.28,37.77,72.88,56.35,1.39,1.15,3.59,2.79,4.94,3.96,11.37,7.74,24.75,18.46,34.61,29.64,59.5,66.18-9.74,119.89-56.3,59.22-9.3-12.34-15.67-26.58-20.16-41.26-1.81-6.37-4.6-15.41-6.69-21.77-4.81-15.16-16.27-50.37-21.17-64.99-1.19-3.48-4.36-12.72-5.66-16.12-.67-1.64-1.21-3.36-2.16-4.87-.07-.08-.16-.22-.28-.17h0Z"/></g><path class="h" d="M295.65,352.54c-15.25,29.9-72.03,26.05-94.7-57.18,0,0-.36-1.1-1.02-3.09,3.47,5.28,5.61,8.54,5.61,8.54,31.25,53.41,68.81,62.81,90.11,51.73Z"/><g><circle class="g" cx="179.93" cy="211.41" r="28.21"/><path class="k" d="M154.59,223.82c-11.19-22.95,10.52-48.38,35.04-40.73,15.69,4.81,24.45,22.67,18.63,38.02-8.97,24.07-42.4,25.62-53.66,2.71h0Zm0,0c6.59,13.72,23.99,19.38,37.31,12.02,12.73-6.6,18.07-23.33,11.58-35.97-6-12.88-22.49-18.94-35.52-12.91-13.98,6.02-20.16,23.24-13.37,36.86h0Z"/></g><path class="c" d="M206.53,208.72c.95,7.53-1.14,15.43-6.42,21.69-10.04,11.91-27.84,13.42-39.75,3.38-7.94-6.7-11.26-16.84-9.61-26.39,.85,6.78,4.16,13.27,9.8,18.02,11.91,10.05,29.71,8.54,39.75-3.38,3.34-3.96,5.4-8.56,6.23-13.32Z"/><path class="k" d="M179.34,184.78c25.52-.51,39.48,29.88,22.23,48.91-10.96,12.22-30.85,12.66-42.32,.92-18.07-18.26-5.43-49.24,20.09-49.83h0Zm0,0c-15.22,.22-27.67,13.62-26.59,28.8,.64,14.33,13.58,26.2,27.77,25.62,14.2-.03,26.64-12.45,26.64-26.8,.41-15.21-12.61-28.06-27.83-27.62h0Z"/><path class="k" d="M187.44,80.84c20.45,35.63,24.89,82.67,2.98,118.68-22.86,38.21-70.41,49.18-110.15,31.75-25.78-10.91-46.93-31.24-60.74-55.42C5.91,151.58-.62,122.97,3.3,95.25,8.8,52.22,42.71,17.08,87.24,17.17c42.15-.23,80.18,27.79,100.2,63.67h0Zm0,0c-20.12-35.6-58.18-63.62-100.19-62.72C43.46,18.66,10.86,53.28,5.84,95.6c-3.69,27.13,2.87,55.09,16.3,78.78,13.38,23.72,33.99,43.74,59.14,54.54,38.85,17.49,85.35,7.38,108.35-29.89,22.4-35.55,17.97-82.6-2.18-118.18h0Z"/><path class="k" d="M211.78,65.84c20.45,35.63,24.89,82.67,2.98,118.68-22.86,38.21-70.41,49.18-110.15,31.75-25.78-10.91-46.93-31.24-60.74-55.42-13.62-24.28-20.15-52.89-16.23-80.61C33.13,37.22,67.05,2.08,111.58,2.17c42.15-.23,80.18,27.79,100.2,63.67h0Zm0,0C191.66,30.24,153.6,2.22,111.59,3.12,67.8,3.65,35.2,38.28,30.18,80.6c-3.69,27.13,2.87,55.09,16.3,78.78,13.38,23.72,33.99,43.74,59.14,54.54,38.85,17.49,85.35,7.38,108.35-29.89,22.4-35.55,17.97-82.6-2.18-118.18h0Z"/><path class="d" d="M172.71,218.83c-4.27,3.82-8.97,7.22-14.1,10.12-46.01,26.03-108.58,2.47-139.76-52.64C-12.34,121.2-.33,55.42,45.68,29.39c3.34-1.88,6.75-3.52,10.24-4.89C21.87,54.95,15.47,112.34,43.18,161.3c28.92,51.12,84.87,75.1,129.53,57.52Z"/><path class="e" d="M187.62,212.27c-3.33,1.88-6.75,3.51-10.23,4.88,34.05-30.45,40.43-87.84,12.73-136.8C161.2,29.24,105.28,5.26,60.6,22.83c4.27-3.83,8.98-7.22,14.11-10.12,46.01-26.03,108.57-2.47,139.76,52.64,31.18,55.11,19.16,120.88-26.85,146.92Z"/><path class="f" d="M187.06,210.55c-3.33,1.88-6.75,3.5-10.23,4.87,34.06-30.38,40.47-87.61,12.79-136.43C160.72,28.04,104.81,4.14,60.13,21.68c4.27-3.82,8.98-7.2,14.11-10.1,46.01-25.98,108.57-2.5,139.73,52.44,31.16,54.94,19.11,120.54-26.91,146.52Z"/><g><path class="i" d="M175.78,216.93c-44.56,17.63-100.44-6.55-129.36-57.97C18.72,109.69,25.05,52,59,21.42c44.58-17.62,100.43,6.56,129.35,57.98,27.7,49.26,21.39,106.95-12.56,137.53Z"/><path class="k" d="M175.78,216.93c-49.22,19.62-103.88-11.99-128.62-55.21C21.05,119.06,19.3,55.82,58.63,20.49c42.89-16.93,91.49,5.58,118.31,40.37,35.09,43.52,43.03,115.96-1.16,156.06h0Zm0,0c48.15-45.33,32.44-127.22-12.87-168.88C136.03,21.9,94.31,8.45,59.67,22.17,21.25,57.14,23.14,118.79,48.49,160.94c24.21,43.01,78.32,74.79,127.3,55.99h0Z"/></g><path class="b" d="M62.37,50.46c-12.24,14.08-7,35.47-2.98,51.85,6.22,25.35,20.33,52.77,27.47,50.96,8.07-2.05-3.55-38.71,15.82-54.39,13.51-10.94,29.97-1.84,34.04-9.75,6.5-12.62-26.08-53.86-55.68-48.99-1.68,.28-11.47,2.04-18.67,10.33Z"/></svg>