<?xml version="1.0" encoding="UTF-8"?><svg xmlns="http://www.w3.org/2000/svg" viewBox="0 0 305.72 378.48"><defs><style>.c,.d{fill:#fff;}.e{fill:#e0e0e0;}.e,.f{stroke:#231f20;stroke-width:3px;}.e,.f,.d{stroke-miterlimit:10;}.g{fill:#4c4b4b;}.h{fill:#686464;}.i{fill:#66141c;}.f{fill:#727272;}.j{fill:#afafaf;}.d{stroke:#fff;stroke-width:8px;}.k{fill:#8e1921;}.l{fill:#231f20;}</style></defs><g id="a"><g><path class="c" d="M168.31,200.84c1.95-1.58,35,99.42,35,99.42,38.36,140.78,174.28,54.46,41.81-38.16-.95-1.01-76.81-61.26-76.81-61.26Z"/><path class="c" d="M168.31,200.84c.12-.06,.22,.08,.3,.15,1.04,1.45,1.7,3.15,2.47,4.75,2.35,5.2,4.48,10.5,6.58,15.81,8.39,21.22,16.06,42.7,23.72,64.18,2.3,6.25,5.3,15.44,7.27,21.63,4.74,14,11.07,27.68,20.13,39.35,12.07,16.08,34.4,30.64,54.25,20.51,20.66-11.35,16.76-37.45,6.51-55-11.09-19.64-28.45-34.75-46.48-48.18-24.74-20.69-50.47-42.09-74.74-63.2h0Zm0,0c24.81,17.99,49.44,36.59,73.77,55.24,1.51,1.25,3.65,2.76,5.11,4.07l-.44-.38c12.72,8.71,24.94,18.32,35.29,29.87,61.65,67.94-11.08,124.49-59.06,61.48-9.39-12.56-15.77-27-20.21-41.89-1.78-6.43-4.48-15.4-6.54-21.8-4.42-14.35-15.88-51.42-20.26-65.28-1.12-3.5-4.11-12.8-5.34-16.23-.63-1.65-1.14-3.38-2.05-4.91-.07-.08-.15-.22-.27-.17h0Z"/></g><path class="c" d="M157.09,227.09c-11.38-23.4,10.25-49.65,35.59-42.36,16.85,4.79,26.25,23.96,19.71,40.21-9.77,24.51-43.81,25.49-55.31,2.15h0Zm0,0c6.5,13.63,23.99,18.95,36.86,11.12,11.77-6.81,16.2-22.34,10.22-34.18-5.68-11.99-20.68-18.04-33.28-12.9-14.08,5.39-20.58,22.47-13.8,35.96h0Z"/><g><ellipse class="c" cx="106.64" cy="131.24" rx="95.71" ry="114.64" transform="translate(-50.81 69.54) rotate(-29.5)"/><path class="c" d="M189.94,84.11c20.43,35.73,25.2,82.72,3.6,119.06-22.79,39.08-71.04,50.76-111.61,33.35-26.39-10.87-48.01-31.54-62.07-56.17C5.97,155.62-.62,126.44,3.65,98.22,9.59,54.48,44.49,19.09,89.73,19.7c42.28,.2,80.1,28.49,100.21,64.4h0Zm0,0c-20.03-35.56-58.3-63.33-100.17-61.99C46.68,23.16,15.07,57.55,10.49,99.16c-3.33,26.62,3.16,54.01,16.32,77.25,13.13,23.26,33.27,42.94,57.81,53.79,38.02,17.52,83.83,8.11,106.88-28.3,22.71-35.21,18.61-82.31-1.57-117.8h0Z"/></g><g><ellipse class="c" cx="130.97" cy="116.24" rx="95.71" ry="114.64" transform="translate(-40.26 79.58) rotate(-29.5)"/><path class="c" d="M214.28,69.1c20.43,35.73,25.2,82.72,3.6,119.06-22.79,39.08-71.04,50.76-111.61,33.35-26.39-10.87-48.01-31.54-62.07-56.17-13.88-24.73-20.48-53.91-16.2-82.13C33.93,39.48,68.83,4.08,114.06,4.7c42.28,.2,80.1,28.49,100.21,64.4h0Zm0,0C194.25,33.54,155.97,5.77,114.1,7.12c-43.09,1.04-74.7,35.43-79.28,77.04-3.33,26.62,3.16,54.01,16.32,77.25,13.13,23.26,33.27,42.94,57.81,53.79,38.02,17.52,83.83,8.11,106.88-28.3,22.71-35.21,18.61-82.31-1.57-117.8h0Z"/></g><path class="d" d="M175.21,222.09c-4.27,3.82-8.97,7.22-14.1,10.12-46.01,26.03-108.58,2.47-139.76-52.64C-9.84,124.46,2.17,58.69,48.18,32.65c3.34-1.88,6.75-3.52,10.24-4.89-34.05,30.45-40.45,87.83-12.74,136.8,28.92,51.12,84.87,75.1,129.53,57.52Z"/><path class="d" d="M188.74,214.16c-3.33,1.88-6.75,3.51-10.23,4.88,34.05-30.45,40.43-87.84,12.73-136.8C162.33,31.13,106.4,7.15,61.72,24.72c4.27-3.83,8.98-7.22,14.11-10.12,46.01-26.03,108.57-2.47,139.76,52.64,31.18,55.11,19.16,120.88-26.85,146.92Z"/><g><path class="c" d="M178.33,220.2c-44.59,17.58-100.46-6.46-129.35-57.66C21.3,113.48,27.66,56.02,61.64,25.54c44.6-17.57,100.45,6.47,129.34,57.66,27.68,49.04,21.33,106.51-12.65,136.99Z"/><path class="c" d="M178.33,220.2c-23.57,10.3-51.08,7.96-74.21-2.58C56.99,196.12,26.02,144.47,28.01,92.68c.94-26.07,11.28-52.4,30.96-70.12l.53-.48,.67-.26c37.4-14.8,80.46-.27,108.25,26.87,18.63,17.8,32,41.11,38.22,66.08,9.32,36.72,1.69,80.25-28.32,105.43h0Zm0,0c36.96-35.75,34.41-96.51,8.49-137.9C160.27,38.17,109.54,12.79,64.31,28.52,26.92,62.4,28.79,122.36,53.13,163.45c23.83,42.68,76.38,74,125.2,56.74h0Z"/></g><path class="d" d="M64.87,53.73c-12.24,14.08-7,35.47-2.98,51.85,6.22,25.35,20.33,52.77,27.47,50.96,8.07-2.05-3.55-38.71,15.82-54.39,13.51-10.94,29.97-1.84,34.04-9.75,6.5-12.62-26.08-53.86-55.68-48.99-1.68,.28-11.47,2.04-18.67,10.33Z"/><g><circle class="c" cx="182.46" cy="216.25" r="28.21"/><path class="c" d="M181.84,188.04c26.01-.5,40.74,30.16,23.48,50.1-11.43,13.28-32.77,13.75-44.77,.99-18.14-19.17-4.72-50.46,21.3-51.09h0Zm0,0c-15.1,.17-27.27,13.8-25.59,28.78,1.23,13.54,13.47,24.09,26.72,23.64,13.27-.11,25.06-11.18,25.69-24.78,1.03-15.04-11.74-28.12-26.83-27.64h0Z"/></g></g><g id="b"><g><path class="k" d="M168.31,200.84c1.95-1.58,35,99.42,35,99.42,38.36,140.78,174.28,54.46,41.81-38.16-.95-1.01-76.81-61.26-76.81-61.26Z"/><path class="l" d="M168.31,200.84c.12-.05,.21,.08,.29,.16,1.01,1.47,1.63,3.17,2.36,4.79,2.23,5.25,4.26,10.58,6.25,15.92,7.97,21.36,15.47,42.89,22.82,64.47,2.26,6.28,5.17,15.41,7.11,21.66,4.69,14.22,11.04,28.09,20.17,39.98,43.51,55.87,106.09,8.15,50.79-54.7-9.96-11.38-21.69-21.15-33.99-30.08-1.14-.95-3.43-2.86-4.58-3.79-22.85-18.6-48.46-39.54-71.23-58.4h0Zm0,0c23.91,18.19,49.28,37.77,72.88,56.35,1.39,1.15,3.59,2.79,4.94,3.96,11.37,7.74,24.75,18.46,34.61,29.64,59.5,66.18-9.74,119.89-56.3,59.22-9.3-12.34-15.67-26.58-20.16-41.26-1.81-6.37-4.6-15.41-6.69-21.77-4.81-15.16-16.27-50.37-21.17-64.99-1.19-3.48-4.36-12.72-5.66-16.12-.67-1.64-1.21-3.36-2.16-4.87-.07-.08-.16-.22-.28-.17h0Z"/></g><path class="i" d="M298.15,355.81c-15.25,29.9-72.03,26.05-94.7-57.18,0,0-.36-1.1-1.02-3.09,3.47,5.28,5.61,8.54,5.61,8.54,31.25,53.41,68.81,62.81,90.11,51.73Z"/><g><circle class="h" cx="182.43" cy="214.68" r="28.21"/><path class="l" d="M157.09,227.09c-11.19-22.95,10.52-48.38,35.04-40.73,15.69,4.81,24.45,22.67,18.63,38.02-8.97,24.07-42.4,25.62-53.66,2.71h0Zm0,0c6.59,13.72,23.99,19.38,37.31,12.02,12.73-6.6,18.07-23.33,11.58-35.97-6-12.88-22.49-18.94-35.52-12.91-13.98,6.02-20.16,23.24-13.37,36.86h0Z"/></g><path class="g" d="M209.03,211.99c.95,7.53-1.14,15.43-6.42,21.69-10.04,11.91-27.84,13.42-39.75,3.38-7.94-6.7-11.26-16.84-9.61-26.39,.85,6.78,4.16,13.27,9.8,18.02,11.91,10.05,29.71,8.54,39.75-3.38,3.34-3.96,5.4-8.56,6.23-13.32Z"/><path class="l" d="M181.84,188.04c25.52-.51,39.48,29.88,22.23,48.91-10.96,12.22-30.85,12.66-42.32,.92-18.07-18.26-5.43-49.24,20.09-49.83h0Zm0,0c-15.22,.22-27.67,13.62-26.59,28.8,.64,14.33,13.58,26.2,27.77,25.62,14.2-.03,26.64-12.45,26.64-26.8,.41-15.21-12.61-28.06-27.83-27.62h0Z"/><path class="l" d="M189.94,84.11c20.45,35.63,24.89,82.67,2.98,118.68-22.86,38.21-70.41,49.18-110.15,31.75-25.78-10.91-46.93-31.24-60.74-55.42C8.41,154.84,1.88,126.23,5.8,98.51,11.3,55.49,45.21,20.35,89.74,20.44c42.15-.23,80.18,27.79,100.2,63.67h0Zm0,0c-20.12-35.6-58.18-63.62-100.19-62.72C45.96,21.92,13.36,56.55,8.34,98.87c-3.69,27.13,2.87,55.09,16.3,78.78,13.38,23.72,33.99,43.74,59.14,54.54,38.85,17.49,85.35,7.38,108.35-29.89,22.4-35.55,17.97-82.6-2.18-118.18h0Z"/><path class="l" d="M214.28,69.1c20.45,35.63,24.89,82.67,2.98,118.68-22.86,38.21-70.41,49.18-110.15,31.75-25.78-10.91-46.93-31.24-60.74-55.42-13.62-24.28-20.15-52.89-16.23-80.61C35.63,40.48,69.55,5.34,114.08,5.43c42.15-.23,80.18,27.79,100.2,63.67h0Zm0,0C194.16,33.51,156.1,5.48,114.09,6.38c-43.79,.53-76.39,35.16-81.41,77.48-3.69,27.13,2.87,55.09,16.3,78.78,13.38,23.72,33.99,43.74,59.14,54.54,38.85,17.49,85.35,7.38,108.35-29.89,22.4-35.55,17.97-82.6-2.18-118.18h0Z"/><path class="g" d="M209.8,214.15c-.11,5.07-1.6,10.17-4.57,14.74-8.51,13.04-25.99,16.73-39.05,8.21-12.89-8.42-16.64-25.6-8.49-38.6-.22,9.44,4.3,18.76,12.79,24.3,13.05,8.52,30.53,4.84,39.05-8.21,.09-.15,.19-.29,.28-.43Z"/><path class="f" d="M175.21,222.09c-4.27,3.82-8.97,7.22-14.1,10.12-46.01,26.03-108.58,2.47-139.76-52.64C-9.84,124.46,2.17,58.69,48.18,32.65c3.34-1.88,6.75-3.52,10.24-4.89-34.05,30.45-40.45,87.83-12.74,136.8,28.92,51.12,84.87,75.1,129.53,57.52Z"/><path class="e" d="M188.74,214.16c-3.33,1.88-6.75,3.51-10.23,4.88,34.05-30.45,40.43-87.84,12.73-136.8C162.33,31.13,106.4,7.15,61.72,24.72c4.27-3.83,8.98-7.22,14.11-10.12,46.01-26.03,108.57-2.47,139.76,52.64,31.18,55.11,19.16,120.88-26.85,146.92Z"/><g><path class="j" d="M178.33,220.2c-44.59,17.58-100.46-6.46-129.35-57.66C21.3,113.48,27.66,56.02,61.64,25.54c44.6-17.57,100.45,6.47,129.34,57.66,27.68,49.04,21.33,106.51-12.65,136.99Z"/><path class="l" d="M178.33,220.2c-49.07,19.52-103.71-11.69-128.53-54.77C23.59,122.92,21.92,59.76,61.27,24.61c42.77-16.83,91.32,5.36,118.2,40,35.2,43.31,43.09,115.67-1.14,155.58h0Zm0,0c48.2-45.12,32.51-126.93-12.9-168.33C138.5,25.88,96.85,12.63,62.31,26.28,23.86,61.09,25.68,122.66,51.11,164.65c24.29,42.87,78.38,74.26,127.21,55.55h0Z"/></g><path class="c" d="M64.87,53.73c-12.24,14.08-7,35.47-2.98,51.85,6.22,25.35,20.33,52.77,27.47,50.96,8.07-2.05-3.55-38.71,15.82-54.39,13.51-10.94,29.97-1.84,34.04-9.75,6.5-12.62-26.08-53.86-55.68-48.99-1.68,.28-11.47,2.04-18.67,10.33Z"/></g></svg>