<?xml version="1.0" encoding="UTF-8"?><svg xmlns="http://www.w3.org/2000/svg" viewBox="0 0 319.6 392.41"><defs><style>.c,.d{fill:#fff;}.e{fill:#e0e0e0;}.e,.f{stroke:#231f20;stroke-width:3px;}.e,.f,.d{stroke-miterlimit:10;}.g{fill:#4c4b4b;}.h{fill:#686464;}.i{fill:#66141c;}.f{fill:#727272;}.j{fill:#afafaf;}.d{stroke:#fff;stroke-width:22px;}.k{fill:#8e1921;}.l{fill:#231f20;}</style></defs><g id="a"><g><path class="c" d="M175.31,207.84c1.95-1.58,35,99.42,35,99.42,38.36,140.78,174.28,54.46,41.81-38.16-.95-1.01-76.81-61.26-76.81-61.26Z"/><path class="c" d="M175.31,207.84c.2-.1,.44,.28,.56,.41,2.09,2.94,3.6,6.25,5.27,9.43,3,5.81,7.01,14.71,9.77,20.76,9.23,20.75,17.96,42.26,26.07,63.45,.55,1.36,1.54,4.15,2.01,5.54,5.08,15.12,11.98,30.03,21.9,42.35,35.04,43.12,79.12,13.43,44.58-36.04-5.92-8.65-13.48-16.82-21.12-23.99-5.32-4.99-11-9.7-16.72-14.24-24.41-21.75-49.39-44.4-72.32-67.68h0Zm0,0c27.72,17.06,54.62,35.52,80.96,54.58,.34,.26,1.22,1.03,1.57,1.31l-1.22-1.06c6.63,4.24,13.16,8.69,19.31,13.64,87.98,69.72,25.36,145.98-33.08,104.18-21.9-16.56-33.45-42.44-39.72-68.25-.28-1.36-1-4.02-1.37-5.35-8-28.74-15.82-59.3-23.08-88.3-.7-2.71-1.44-5.58-2.26-8.25-.25-.79-.47-1.59-.86-2.32-.06-.08-.13-.22-.25-.19h0Z"/></g><path class="c" d="M164.09,234.09c-12.28-25.21,9.42-54.41,37.55-48.07,20.85,4.72,32.53,28.51,23.5,47.89-12.26,26.19-48.63,25.37-61.05,.18h0Zm0,0c8.2,16.87,32.07,17.93,40.69,1.13,7.1-13.7-1.43-31.27-16.65-34.04-18.57-3.47-32.36,16.09-24.05,32.91h0Z"/><g><ellipse class="c" cx="113.64" cy="138.24" rx="95.71" ry="114.64" transform="translate(-53.35 73.89) rotate(-29.5)"/><path class="c" d="M196.94,91.11c24.15,41.82,27.08,100.36-7.3,137.65-25.6,28.29-68.42,34.43-103.08,20.3-28-10.84-51.03-32.36-65.79-58.27C9.82,171.3,3.3,149.18,2.95,126.76,1.53,81.27,28.84,35.91,75.16,26.44c49.69-10.25,98.35,22.42,121.77,64.67h0Zm0,0C170.95,43.93,109.31,12.31,59.9,43.28,14.72,73.03,14.9,136.93,39.9,179.97c23.76,43.53,79,76.8,127.5,53.29,51.99-26.44,56.6-95.57,29.54-142.15h0Z"/></g><g><ellipse class="c" cx="137.97" cy="123.24" rx="95.71" ry="114.64" transform="translate(-42.8 83.93) rotate(-29.5)"/><path class="c" d="M221.28,76.1c24.15,41.82,27.08,100.36-7.3,137.65-25.6,28.29-68.42,34.43-103.08,20.3-28-10.84-51.03-32.36-65.79-58.27-10.94-19.5-17.47-41.62-17.82-64.04-1.41-45.48,25.89-90.84,72.21-100.32,49.69-10.25,98.35,22.42,121.78,64.67h0Zm0,0C195.29,28.92,133.65-2.69,84.24,28.28c-45.17,29.75-45,93.65-20,136.69,23.76,43.53,79,76.8,127.5,53.29,51.99-26.44,56.6-95.57,29.54-142.15h0Z"/></g><path class="d" d="M182.21,229.09c-4.27,3.82-8.97,7.22-14.1,10.12-46.01,26.03-108.58,2.47-139.76-52.64C-2.84,131.46,9.17,65.69,55.18,39.65c3.34-1.88,6.75-3.52,10.24-4.89-34.05,30.45-40.45,87.83-12.74,136.8,28.92,51.12,84.87,75.1,129.53,57.52Z"/><path class="d" d="M195.74,221.16c-3.33,1.88-6.75,3.51-10.23,4.88,34.05-30.45,40.43-87.84,12.73-136.8C169.33,38.13,113.4,14.15,68.72,31.72c4.27-3.83,8.98-7.22,14.11-10.12,46.01-26.03,108.57-2.47,139.76,52.64,31.18,55.11,19.16,120.88-26.85,146.92Z"/><g><path class="c" d="M185.33,227.2c-44.59,17.58-100.46-6.46-129.35-57.66-27.68-49.05-21.32-106.52,12.66-136.99,44.6-17.57,100.45,6.47,129.34,57.66,27.68,49.04,21.33,106.51-12.65,136.99Z"/><path class="c" d="M185.33,227.2c-35.96,18.2-80.28,5.24-109.32-20.45-15.17-13.09-27.2-29.75-35.55-47.99C20.3,115.31,24.15,57.75,61.3,24.35l1.46-1.32,1.86-.73c39.87-15.85,85.9-.45,115.06,28.87,28.51,27.98,44.85,69.21,40.91,108.95-2.47,25.83-14.16,51.47-35.25,67.07h0Zm0,0c42.43-46.65,25.43-122.98-18.96-161.89-24.78-22.48-61.64-35.26-93.7-22.53l3.31-2.04c-34.88,31.81-33.01,87.93-11.11,126.92,22.31,42.16,72.09,73.58,120.46,59.55h0Z"/></g><path class="d" d="M71.87,60.73c-12.24,14.08-7,35.47-2.98,51.85,6.22,25.35,20.33,52.77,27.47,50.96,8.07-2.05-3.55-38.71,15.82-54.39,13.51-10.94,29.97-1.84,34.04-9.75,6.5-12.62-26.08-53.86-55.68-48.99-1.68,.28-11.47,2.04-18.67,10.33Z"/><g><circle class="c" cx="189.46" cy="223.25" r="28.21"/><path class="c" d="M188.84,195.04c28.04-.55,45.41,31.42,27.84,54.28-13.05,16.94-39.54,17.54-53.33,1.2-18.61-22.13-2.58-54.79,25.5-55.47h0Zm0,0c-18.76,.35-29.74,21.56-18.13,36.45,9.45,12.2,28.98,11.84,37.88-.8,10.96-15.39-1-36.12-19.75-35.65h0Z"/></g></g><g id="b"><g><path class="k" d="M175.31,207.84c1.95-1.58,35,99.42,35,99.42,38.36,140.78,174.28,54.46,41.81-38.16-.95-1.01-76.81-61.26-76.81-61.26Z"/><path class="l" d="M175.31,207.84c.12-.05,.21,.08,.29,.16,1.01,1.47,1.63,3.17,2.36,4.79,2.23,5.25,4.26,10.58,6.25,15.92,7.97,21.36,15.47,42.89,22.82,64.47,2.26,6.28,5.17,15.41,7.11,21.66,4.69,14.22,11.04,28.09,20.17,39.98,43.51,55.87,106.09,8.15,50.79-54.7-9.96-11.38-21.69-21.15-33.99-30.08-1.14-.95-3.43-2.86-4.58-3.79-22.85-18.6-48.46-39.54-71.23-58.4h0Zm0,0c23.91,18.19,49.28,37.77,72.88,56.35,1.39,1.15,3.59,2.79,4.94,3.96,11.37,7.74,24.75,18.46,34.61,29.64,59.5,66.18-9.74,119.89-56.3,59.22-9.3-12.34-15.67-26.58-20.16-41.26-1.81-6.37-4.6-15.41-6.69-21.77-4.81-15.16-16.27-50.37-21.17-64.99-1.19-3.48-4.36-12.72-5.66-16.12-.67-1.64-1.21-3.36-2.16-4.87-.07-.08-.16-.22-.28-.17h0Z"/></g><path class="i" d="M305.15,362.81c-15.25,29.9-72.03,26.05-94.7-57.18,0,0-.36-1.1-1.02-3.09,3.47,5.28,5.61,8.54,5.61,8.54,31.25,53.41,68.81,62.81,90.11,51.73Z"/><g><circle class="h" cx="189.43" cy="221.68" r="28.21"/><path class="l" d="M164.09,234.09c-11.19-22.95,10.52-48.38,35.04-40.73,15.69,4.81,24.45,22.67,18.63,38.02-8.97,24.07-42.4,25.62-53.66,2.71h0Zm0,0c6.59,13.72,23.99,19.38,37.31,12.02,12.73-6.6,18.07-23.33,11.58-35.97-6-12.88-22.49-18.94-35.52-12.91-13.98,6.02-20.16,23.24-13.37,36.86h0Z"/></g><path class="g" d="M216.03,218.99c.95,7.53-1.14,15.43-6.42,21.69-10.04,11.91-27.84,13.42-39.75,3.38-7.94-6.7-11.26-16.84-9.61-26.39,.85,6.78,4.16,13.27,9.8,18.02,11.91,10.05,29.71,8.54,39.75-3.38,3.34-3.96,5.4-8.56,6.23-13.32Z"/><path class="l" d="M188.84,195.04c25.52-.51,39.48,29.88,22.23,48.91-10.96,12.22-30.85,12.66-42.32,.92-18.07-18.26-5.43-49.24,20.09-49.83h0Zm0,0c-15.22,.22-27.67,13.62-26.59,28.8,.64,14.33,13.58,26.2,27.77,25.62,14.2-.03,26.64-12.45,26.64-26.8,.41-15.21-12.61-28.06-27.83-27.62h0Z"/><path class="l" d="M196.94,91.11c20.45,35.63,24.89,82.67,2.98,118.68-22.86,38.21-70.41,49.18-110.15,31.75-25.78-10.91-46.93-31.24-60.74-55.42-13.62-24.28-20.15-52.89-16.23-80.61C18.3,62.49,52.21,27.35,96.74,27.44c42.15-.23,80.18,27.79,100.2,63.67h0Zm0,0c-20.12-35.6-58.18-63.62-100.19-62.72C52.96,28.92,20.36,63.55,15.34,105.87c-3.69,27.13,2.87,55.09,16.3,78.78,13.38,23.72,33.99,43.74,59.14,54.54,38.85,17.49,85.35,7.38,108.35-29.89,22.4-35.55,17.97-82.6-2.18-118.18h0Z"/><path class="l" d="M221.28,76.1c20.45,35.63,24.89,82.67,2.98,118.68-22.86,38.21-70.41,49.18-110.15,31.75-25.78-10.91-46.93-31.24-60.74-55.42-13.62-24.28-20.15-52.89-16.23-80.61C42.63,47.48,76.55,12.34,121.08,12.43c42.15-.23,80.18,27.79,100.2,63.67h0Zm0,0c-20.12-35.6-58.18-63.62-100.19-62.72-43.79,.53-76.39,35.16-81.41,77.48-3.69,27.13,2.87,55.09,16.3,78.78,13.38,23.72,33.99,43.74,59.14,54.54,38.85,17.49,85.35,7.38,108.35-29.89,22.4-35.55,17.97-82.6-2.18-118.18h0Z"/><path class="g" d="M216.8,221.15c-.11,5.07-1.6,10.17-4.57,14.74-8.51,13.04-25.99,16.73-39.05,8.21-12.89-8.42-16.64-25.6-8.49-38.6-.22,9.44,4.3,18.76,12.79,24.3,13.05,8.52,30.53,4.84,39.05-8.21,.09-.15,.19-.29,.28-.43Z"/><path class="f" d="M182.21,229.09c-4.27,3.82-8.97,7.22-14.1,10.12-46.01,26.03-108.58,2.47-139.76-52.64C-2.84,131.46,9.17,65.69,55.18,39.65c3.34-1.88,6.75-3.52,10.24-4.89-34.05,30.45-40.45,87.83-12.74,136.8,28.92,51.12,84.87,75.1,129.53,57.52Z"/><path class="e" d="M195.74,221.16c-3.33,1.88-6.75,3.51-10.23,4.88,34.05-30.45,40.43-87.84,12.73-136.8C169.33,38.13,113.4,14.15,68.72,31.72c4.27-3.83,8.98-7.22,14.11-10.12,46.01-26.03,108.57-2.47,139.76,52.64,31.18,55.11,19.16,120.88-26.85,146.92Z"/><g><path class="j" d="M185.33,227.2c-44.59,17.58-100.46-6.46-129.35-57.66-27.68-49.05-21.32-106.52,12.66-136.99,44.6-17.57,100.45,6.47,129.34,57.66,27.68,49.04,21.33,106.51-12.65,136.99Z"/><path class="l" d="M185.33,227.2c-49.07,19.52-103.71-11.69-128.53-54.77-26.21-42.5-27.88-105.67,11.48-140.82,42.77-16.83,91.32,5.36,118.2,40,35.2,43.31,43.09,115.67-1.14,155.58h0Zm0,0c48.2-45.12,32.51-126.93-12.9-168.33-26.93-25.99-68.58-39.24-103.12-25.59-38.44,34.8-36.63,96.38-11.19,138.37,24.29,42.87,78.38,74.26,127.21,55.55h0Z"/></g><path class="c" d="M71.87,60.73c-12.24,14.08-7,35.47-2.98,51.85,6.22,25.35,20.33,52.77,27.47,50.96,8.07-2.05-3.55-38.71,15.82-54.39,13.51-10.94,29.97-1.84,34.04-9.75,6.5-12.62-26.08-53.86-55.68-48.99-1.68,.28-11.47,2.04-18.67,10.33Z"/></g></svg>